<svg fill="none" height="20" viewBox="0 0 20 20" width="20" xmlns="http://www.w3.org/2000/svg"><path clip-rule="evenodd" d="m1.75 3c0-.69036.55964-1.25 1.25-1.25h1.16667c.69035 0 1.25.55964 1.25 1.25 0 .66322-.51652 1.20581-1.16924 1.24743-.04162.65272-.58421 1.16924-1.24743 1.16924-.69036 0-1.25-.55965-1.25-1.25zm5.83333 0c0-.69036.55965-1.25 1.25-1.25h2.33337c.6903 0 1.25.55964 1.25 1.25s-.5597 1.25-1.25 1.25h-2.33337c-.69035 0-1.25-.55964-1.25-1.25zm6.99997 0c0-.69036.5597-1.25 1.25-1.25h1.1667c.6904 0 1.25.55964 1.25 1.25v1.16667c0 .69035-.5596 1.25-1.25 1.25-.6632 0-1.2058-.51652-1.2474-1.16924-.6527-.04162-1.1693-.58421-1.1693-1.24743zm-11.5833 4.58333c.69036 0 1.25.55965 1.25 1.25v2.33337c0 .6903-.55964 1.25-1.25 1.25s-1.25-.5597-1.25-1.25v-2.33337c0-.69035.55964-1.25 1.25-1.25zm14 0c.6904 0 1.25.55965 1.25 1.25v2.33337c0 .6903-.5596 1.25-1.25 1.25s-1.25-.5597-1.25-1.25v-2.33337c0-.69035.5596-1.25 1.25-1.25zm-12.75257 8.16927c-.04162-.6527-.58421-1.1693-1.24743-1.1693-.69036 0-1.25.5597-1.25 1.25v1.1667c0 .6904.55964 1.25 1.25 1.25h1.16667c.69035 0 1.25-.5596 1.25-1.25 0-.6632-.51652-1.2058-1.16924-1.2474zm12.75257-1.1693c.6904 0 1.25.5597 1.25 1.25v1.1667c0 .6904-.5596 1.25-1.25 1.25h-1.1667c-.6903 0-1.25-.5596-1.25-1.25 0-.6632.5165-1.2058 1.1693-1.2474.0416-.6527.5842-1.1693 1.2474-1.1693zm-9.41667 2.4167c0-.6904.55965-1.25 1.25-1.25h2.33337c.6903 0 1.25.5596 1.25 1.25s-.5597 1.25-1.25 1.25h-2.33337c-.69035 0-1.25-.5596-1.25-1.25z" fill="#000" fill-rule="evenodd"/></svg>