<svg fill="none" height="432" viewBox="0 0 432 432" width="432" xmlns="http://www.w3.org/2000/svg" xmlns:xlink="http://www.w3.org/1999/xlink"><clipPath id="a"><path d="m0 0h432v432h-432z"/></clipPath><g clip-path="url(#a)"><path d="m217.007 432.01c119.296 0 216.005-96.709 216.005-216.005 0-119.2963-96.709-216.005-216.005-216.005-119.2964 0-216.00517 96.7087-216.00517 216.005 0 119.296 96.70877 216.005 216.00517 216.005z" fill="#3770dc"/><g stroke-miterlimit="10" stroke-width="10"><path d="m81.2725 150.713h299.7515" stroke="#fff"/><path d="m217.007 122.73h105.698" stroke="#fff"/><path d="m255.018 178.705h105.708" stroke="#fff"/><path d="m63.1584 203.993h259.5466" stroke="#fff"/><path d="m47.9199 178.705h154.4191" stroke="#fff"/><path d="m202.339 260.839c47.675 0 86.322-38.648 86.322-86.322s-38.647-86.3216-86.322-86.3216c-47.674 0-86.321 38.6476-86.321 86.3216s38.647 86.322 86.321 86.322z" fill="#fff" stroke="#3770dc"/><path d="m377.728 299.411h-325.2395c-.9718-2.875-1.5128-5.941-1.5128-9.137 0-15.809 12.814-28.633 28.6337-28.633 6.1315 0 11.7921 1.943 16.4508 5.219 7.8448-12.613 21.7808-21.029 37.7208-21.029 6.061 0 11.842 1.222 17.112 3.426 9.017-24.546 32.591-42.058 60.263-42.058 20.649 0 39.003 9.758 50.745 24.896 8.236-3.847 17.413-6.001 27.101-6.001 17.192 0 32.791 6.773 44.313 17.783 3.667-1.172 7.574-1.823 11.632-1.823 21.029 0 38.081 17.052 38.081 38.081 0 7.054-1.953 13.626-5.3 19.286z" fill="#fff" stroke="#3770dc"/><path d="m350.457 314.48h-241.372c-.722-2.134-1.122-4.409-1.122-6.783 0-11.732 9.517-21.25 21.249-21.25 4.549 0 8.757 1.443 12.213 3.877 5.821-9.357 16.171-15.609 27.993-15.609 4.498 0 8.786.912 12.694 2.545 6.692-18.214 24.185-31.219 44.723-31.219 15.319 0 28.945 7.244 37.661 18.485 6.111-2.855 12.924-4.458 20.118-4.458 12.754 0 24.335 5.029 32.881 13.194 2.725-.871 5.621-1.352 8.637-1.352 15.609 0 28.263 12.654 28.263 28.263 0 5.23-1.453 10.119-3.928 14.317z" fill="#fff" stroke="#3770dc"/></g></g></svg>