<svg fill="none" height="432" viewBox="0 0 432 432" width="432" xmlns="http://www.w3.org/2000/svg" xmlns:xlink="http://www.w3.org/1999/xlink"><clipPath id="a"><path d="m0 0h432v432h-432z"/></clipPath><g clip-path="url(#a)"><path d="m216.005 432.01c119.296 0 216.005-96.709 216.005-216.005 0-119.2963-96.709-216.005-216.005-216.005-119.2963 0-216.005 96.7087-216.005 216.005 0 119.296 96.7087 216.005 216.005 216.005z" fill="#53b45c"/><path d="m304.952 321.212c15.759-6.462 28.243-19.877 38.342-35.677 10.099-15.799 1.212-1.853 1.773-2.775l28.674-44.964-56.065-7.945s-29.626-5.921-52.168 5.741c-.712.29-1.423.591-2.124.911-23.675 10.891-34.044 38.923-23.154 62.598 10.891 23.674 38.923 34.044 62.598 23.153.721-.33 1.422-.681 2.124-1.042z" fill="#fff"/><path d="m262.963 291.006c26.389-20.128 54.442-31.499 75.241-32.201-18.715-9.187-51.206-1.603-79.92 20.298-25.217 19.226-40.546 44.193-41.267 63.85 8.686-17.042 24.726-35.767 45.946-51.947z" fill="#53b45c"/><g fill="#fff"><path d="m242.254 291.847c.441.892.922 1.774 1.423 2.655 1.753 3.046 3.797 5.881 6.071 8.486-15.118 14.187-26.65 28.884-33.753 42.51-.02-15.98 9.408-35.417 26.259-53.651z"/><path d="m215.464 62.4771c31.359 40.9369 53.23 79.8899 53.611 109.0749.38 29.184-22.523 62.246-52.809 62.316-36.088.081-54.032-32.1-54.412-61.284-.381-29.185 21.971-68.559 53.61-110.1069z"/><path d="m127.048 321.212c-15.759-6.462-28.2427-19.877-38.3416-35.677-10.099-15.799-1.2123-1.853-1.7734-2.775l-28.6737-44.964 56.0647-7.945s29.626-5.921 52.168 5.741c.712.29 1.423.591 2.124.911 23.675 10.891 34.044 38.923 23.154 62.598-10.891 23.674-38.923 34.044-62.598 23.153-.721-.33-1.422-.681-2.124-1.042z"/></g><path d="m169.037 291.006c-26.39-20.128-54.442-31.499-75.2411-32.201 18.7151-9.187 51.2061-1.603 79.9201 20.298 25.217 19.226 40.546 44.193 41.267 63.85-8.686-17.042-24.726-35.767-45.946-51.947z" fill="#53b45c"/><path d="m189.746 291.847c-.441.892-.922 1.774-1.423 2.655-1.753 3.046-3.797 5.881-6.071 8.486 15.118 14.187 26.65 28.884 33.753 42.51.02-15.98-9.408-35.417-26.259-53.651z" fill="#fff"/><path d="m219.552 207.028c-19.697 0-34.225-19.256-37.07-40.896-.561-3.096-.861-6.322-.861-9.629 0-2.093.13-4.147.35-6.161-4.418 7.153-7.033 15.789-7.033 25.127 0 24.556 17.853 44.463 39.865 44.463 15.479 0 28.874-9.858 35.476-24.235-7.293 10.52-17.893 11.331-30.737 11.331z" fill="#53b45c"/></g></svg>