<svg fill="none" height="432" viewBox="0 0 432 432" width="432" xmlns="http://www.w3.org/2000/svg" xmlns:xlink="http://www.w3.org/1999/xlink"><clipPath id="a"><path d="m0 0h432v432h-432z"/></clipPath><g clip-path="url(#a)"><path d="m216.005 432.01c119.296 0 216.005-96.709 216.005-216.005 0-119.2963-96.709-216.005-216.005-216.005-119.2963 0-216.005 96.7087-216.005 216.005 0 119.296 96.7087 216.005 216.005 216.005z" fill="#3f8e7d"/><path d="m162.415 79.6594v212.3376" stroke="#fff" stroke-miterlimit="10" stroke-width="6"/><path d="m56.2455 185.828h212.3385" stroke="#fff" stroke-miterlimit="10" stroke-width="7"/><path d="m239.078 112.381-153.3172 146.905" stroke="#fff" stroke-miterlimit="10" stroke-width="7"/><path d="m88.9668 109.175 146.9052 153.317" stroke="#fff" stroke-miterlimit="10" stroke-width="7"/><path d="m260.789 145.884-196.7389 79.889" stroke="#fff" stroke-miterlimit="10" stroke-width="7"/><path d="m122.47 87.464 79.899 196.729" stroke="#fff" stroke-miterlimit="10" stroke-width="7"/><path d="m66.2843 144.972 196.7387 79.9" stroke="#fff" stroke-miterlimit="10" stroke-width="7"/><path d="m204.604 86.5523-79.89 196.7387" stroke="#fff" stroke-miterlimit="10" stroke-width="7"/><path d="m162.415 251.482c36.259 0 65.653-29.394 65.653-65.654 0-36.259-29.394-65.653-65.653-65.653-36.26 0-65.6536 29.394-65.6536 65.653 0 36.26 29.3936 65.654 65.6536 65.654z" fill="#3f8e7d" stroke="#fff" stroke-miterlimit="10" stroke-width="6"/><path d="m277.55 362.75c26.848 0 48.612-21.764 48.612-48.611s-21.764-48.611-48.612-48.611c-26.847 0-48.611 21.764-48.611 48.611s21.764 48.611 48.611 48.611z" fill="#fff"/><path d="m305.573 283.992c-.751-.24-1.503-.47-2.264-.691v-181.42c0-7.6944-10.69-13.9361-23.875-13.9361h-6.081c-13.185 0-23.875 6.2417-23.875 13.9361v181.721c-.411.13-.822.26-1.233.39z" fill="#fff"/><path d="m277.55 338.835c13.64 0 24.697-11.057 24.697-24.696s-11.057-24.696-24.697-24.696c-13.639 0-24.696 11.057-24.696 24.696s11.057 24.696 24.696 24.696z" fill="#3f8e7d"/><path d="m264.756 140.403h24.296v158.978h-24.296z" fill="#3f8e7d"/><g stroke="#fff" stroke-miterlimit="10"><path d="m273.503 175.209h27.982" stroke-width="4"/><path d="m278.582 162.745h21.4" stroke-width="4"/><path d="m273.503 150.292h27.982" stroke-width="4"/><path d="m273.503 200.125h27.982" stroke-width="4"/><path d="m278.582 187.662h21.4" stroke-width="4"/><path d="m273.503 225.222h27.982" stroke-width="4"/><path d="m278.582 212.729h21.4" stroke-width="4"/><path d="m273.503 251.622h27.982" stroke-width="4"/><path d="m278.582 239.128h21.4" stroke-width="4"/><path d="m273.503 278.021h27.982" stroke-width="4"/><path d="m278.582 265.518h21.4" stroke-width="4"/><path d="m278.362 290.515h21.4" stroke-width="4"/></g></g></svg>