<svg fill="none" height="432" viewBox="0 0 432 432" width="432" xmlns="http://www.w3.org/2000/svg" xmlns:xlink="http://www.w3.org/1999/xlink"><clipPath id="a"><path d="m0 0h432v432h-432z"/></clipPath><g clip-path="url(#a)"><path d="m216.005 432.01c119.296 0 216.005-96.709 216.005-216.005 0-119.2963-96.709-216.005-216.005-216.005-119.2963 0-216.005 96.7087-216.005 216.005 0 119.296 96.7087 216.005 216.005 216.005z" fill="#81a2aa"/><path d="m364.544 203.552c-2.676 2.725-6.493 4.348-10.66 4.167-4.168-.18-7.825-2.144-10.24-5.099-2.414-3.917-6.472-6.743-11.271-7.494v2.485c3.356.611 6.282 2.394 8.316 4.879 2.715 4.408 7.504 7.434 13.084 7.684 5.581.251 10.62-2.344 13.716-6.482l-2.955-.13z" fill="#fff" stroke="#fff" stroke-miterlimit="10" stroke-width="8"/><path d="m86.9831 202.92c-.5009-.47-.9718-.971-1.3926-1.512-2.7452-4.619-7.6844-7.845-13.4753-8.196-5.7908-.35-11.0707 2.265-14.3569 6.523l3.0657.18c2.8253-2.785 6.8128-4.418 11.1409-4.158 4.3282.261 8.0952 2.354 10.5598 5.46 1.1422 1.914 2.665 3.587 4.4584 4.92z" fill="#fff" stroke="#fff" stroke-miterlimit="10" stroke-width="8"/><path d="m331.131 200.756h-12.253v8.056l-20.228.3c.01-.15.02-.3.02-.451 0-5.6-7.424-10.149-16.591-10.149s-16.591 4.539-16.591 10.149c0 .321.03.631.07.942l-18.084.271c.08-.401.12-.802.12-1.213 0-5.6-7.424-10.149-16.591-10.149s-16.591 4.539-16.591 10.149c0 .581.08 1.152.24 1.713l-18.534.281s0-.04 0-.05c0-5.601-7.424-10.149-16.591-10.149-9.168 0-16.592 4.538-16.592 10.149 0 .19 0 .371.031.551l-17.423.26c.03-.27.06-.541.06-.811 0-5.601-7.424-10.149-16.591-10.149s-16.591 4.538-16.591 10.149c0 .441-1.132.15-1.042.581l-17.2325 1.012 37.1295 98.585 13.345-10.65 25.508 60.754 71.163-50.054 17.714 32.481 19.426-28.584 17.262-11.832 32.742-94.207h-.02l2.725-7.905z" fill="#fff"/><path d="m242.545 167.033 30.978 29.506c2.384-1.163 5.089-1.824 7.945-1.824 6.051 0 11.391 2.926 14.537 7.374 2.765 2.955 6.813 4.819 11.331 4.819 4.509 0 8.566-1.864 11.321-4.809 3.106-4.378 6.513-8.496 12.454-8.586l-18.044-33.743-35.106-9.859-55.223-75.9123-6.292 8.5561 11.812 62.6272-36.989 38.573 51.266-16.722z" fill="#fff"/><path d="m95.7696 206.016 6.1614 3.437 42.45-71.374 43.611-16.782 34.756-47.2983-6.833-9.5579-37.27 50.1642-42.41 17.162-43.2907 73.037c.8916.491 1.8434.892 2.8353 1.202z" fill="#fff"/><g fill="#81a2aa" stroke="#81a2aa" stroke-miterlimit="10" stroke-width="9"><path d="m252.864 209.853c-4.278-.28-7.995-2.584-10.439-5.991-2.716-5.069-7.595-8.596-13.315-8.977-5.731-.38-10.951 2.485-14.187 7.154l3.026.2c2.795-3.056 6.732-4.849 11.01-4.558 4.278.28 7.995 2.584 10.44 5.991 2.715 5.069 7.594 8.596 13.315 8.977 5.731.38 10.95-2.485 14.186-7.154l-3.025-.2c-2.795 3.056-6.733 4.849-11.011 4.558z"/><path d="m304.06 210.034c-4.278-.281-7.995-2.585-10.439-5.991-2.716-5.07-7.595-8.597-13.315-8.977-5.731-.381-10.951 2.484-14.187 7.153l3.026.201c2.795-3.056 6.732-4.85 11.01-4.559 4.278.281 7.995 2.585 10.44 5.991 2.715 5.07 7.594 8.596 13.315 8.977 5.731.381 10.95-2.485 14.186-7.153l-3.025-.201c-2.795 3.056-6.733 4.849-11.011 4.559z"/><path d="m213.039 205.044c-2.644 2.986-6.412 4.769-10.529 4.569-4.118-.2-7.735-2.354-10.119-5.59-2.385-4.299-6.402-7.394-11.141-8.216v2.725c3.326.672 6.212 2.625 8.225 5.35 2.685 4.829 7.414 8.156 12.935 8.426 5.51.271 10.499-2.565 13.555-7.113l-2.916-.141z"/><path d="m326.893 195.657c-3.847.952-7.224 3.366-9.568 6.742l3.026.201c1.783-1.954 4.027-3.376 6.532-4.088v-2.845z"/><path d="m152.145 210.234c-4.278-.28-7.995-2.585-10.439-5.991-2.715-5.07-7.595-8.596-13.315-8.977-5.731-.381-10.951 2.485-14.187 7.154l3.026.2c2.795-3.056 6.732-4.849 11.01-4.559 4.278.281 7.995 2.585 10.44 5.992 2.715 5.069 7.594 8.596 13.315 8.976 5.731.381 10.951-2.484 14.187-7.153l-3.026-.2c-2.795 3.055-6.733 4.849-11.011 4.558z"/><path d="m174.978 195.857c-3.847.952-7.223 3.367-9.568 6.743l3.026.2c1.783-1.953 4.027-3.376 6.532-4.087v-2.846z"/><path d="m179.907 198.362-2.474.06-.02-7.143 2.494.11z"/><path d="m111.96 205.495c-2.795 3.056-6.733 4.849-11.011 4.559-2.274-.15-4.398-.882-6.2514-2.034v3.106c1.8635.972 3.9173 1.573 6.1014 1.723 5.731.381 10.951-2.485 14.187-7.153z"/></g></g></svg>