<svg fill="none" height="432" viewBox="0 0 432 432" width="432" xmlns="http://www.w3.org/2000/svg" xmlns:xlink="http://www.w3.org/1999/xlink"><clipPath id="a"><path d="m0 0h432v432h-432z"/></clipPath><g clip-path="url(#a)"><path d="m216.005 432.01c119.296 0 216.005-96.709 216.005-216.005 0-119.2963-96.709-216.005-216.005-216.005-119.2963 0-216.005 96.7087-216.005 216.005 0 119.296 96.7087 216.005 216.005 216.005z" fill="#d24032"/><g fill="#fff"><path d="m306.254 192.952c20.351 0 36.849-16.498 36.849-36.849s-16.498-36.849-36.849-36.849-36.849 16.498-36.849 36.849 16.498 36.849 36.849 36.849z"/><path d="m306.254 202.971c-38.302 0-69.35 15.258-69.35 34.083v34.084h138.69v-34.084c0-18.825-31.048-34.083-69.35-34.083z"/><path d="m122.079 190.708c20.351 0 36.849-16.498 36.849-36.85 0-20.351-16.498-36.849-36.849-36.849s-36.8491 16.498-36.8491 36.849c0 20.352 16.4981 36.85 36.8491 36.85z"/><path d="m122.079 200.726c-38.3019 0-69.3501 15.259-69.3501 34.084v34.084h138.6901v-34.084c0-18.825-31.048-34.084-69.35-34.084z"/></g><path d="m216.997 216.005c-46.988 0-85.09 18.725-85.09 41.818v41.819h170.169v-41.819c0-23.093-38.091-41.818-85.089-41.818z" fill="#d24032"/><path d="m216.005 221.465c20.351 0 36.849-16.498 36.849-36.849s-16.498-36.849-36.849-36.849-36.849 16.498-36.849 36.849 16.498 36.849 36.849 36.849z" fill="#fff"/><path d="m216.997 229.29c-39.705 0-71.895 15.259-71.895 34.084v34.084h143.79v-34.084c0-18.825-32.191-34.084-71.895-34.084z" fill="#fff"/></g></svg>