<svg fill="none" height="432" viewBox="0 0 432 432" width="432" xmlns="http://www.w3.org/2000/svg" xmlns:xlink="http://www.w3.org/1999/xlink"><clipPath id="a"><path d="m0 0h432v432h-432z"/></clipPath><g clip-path="url(#a)"><path d="m216.005 432.01c119.296 0 216.005-96.709 216.005-216.005 0-119.2963-96.709-216.005-216.005-216.005-119.2963 0-216.005 96.7087-216.005 216.005 0 119.296 96.7087 216.005 216.005 216.005z" fill="#367a3d"/><g style="fill-rule:evenodd;clip-rule:evenodd;fill:#fff;stroke:#367a3d;stroke-width:4;stroke-miterlimit:10"><path d="m341.791 125.315v11.121c-4.178-4.138-8.747-7.865-13.646-11.121zm-251.5819 172.493v-9.668c3.6469-.831 12.8839-1.483 27.2209 7.394 1.122.701 2.214 1.463 3.266 2.274zm150.1419-171.421 1.843-.261c3.927-.541 7.875-.811 11.842-.811h38.663c22.352 5.981 40.666 19.396 49.102 35.557v36.428c-12.484 21.24-46.097 30.597-79.229 21.761-21.801-5.811-40.045-18.765-48.801-34.635-5.4-9.027-6.803-19.898-3.857-29.996 3.907-12.534 14.717-22.503 30.437-28.053zm-136.456-1.072h47.97c-6.733 10.79-8.887 23.825-5.971 36.208 3.656 15.138 8.025 23.484 25.648 35.977 7.694 5.901 15.028 12.243 21.981 18.996 11.912 11.642 24.746 22.292 38.382 31.85 36.017 23.764 96.801 21.58 109.876 20.809v26.369c-37.661-.08-97.112-6.382-106.149-23.564-10.851-20.649-41.769-49.303-60.253-63.038-10.41-7.735-17.032-11.943-22.873-15.66-5.49-3.486-10.219-6.502-17.182-11.802-16.621-14.557-27.722-34.374-31.449-56.135zm-13.6759 73.969v-66.535s.0201-.04.0401-.04c.0201 0 .0401.02.0401.04 5.0394 23.574 17.7237 44.834 36.0777 60.473 7.454 5.671 12.674 8.997 18.194 12.504 5.901 3.757 12.003 7.644 21.991 15.058 20.108 14.938 47.229 41.378 55.985 58.039 4.388 8.345 14.137 14.467 26.35 18.985h-38.973c-1.623-3.616-3.216-7.393-4.849-11.331-8.496-20.418-18.114-43.582-38.252-51.466-26.149-10.57-51.717-22.503-76.6239-35.737zm-.01 16.721c15.1279 7.805 43.6819 22.021 71.2439 32.781 14.276 5.581 22.622 25.659 29.976 43.372.801 1.913 1.583 3.797 2.374 5.66h-18.965l-.191-.41c-6.472-14.447-13.846-30.818-29.595-36.509l-54.8429-19.797zm35.0059 66.935c-9.067-6.151-19.687-9.638-30.6377-10.048-1.4627 0-2.9255.09-4.3782.28v-16.35l49.8339 17.983c8.345 3.016 13.735 12.664 18.564 23.013h-17.763c-4.098-6.011-9.418-11.07-15.629-14.867zm87.394-157.625c-7.865 6.462-13.706 15.038-16.832 24.716-4.188 13.936-2.364 28.985 5.029 41.528 10.821 19.607 31.94 34.845 57.939 41.789 31.77 8.475 63.349 2.644 83.046-13.706v34.685c-9.248.571-68.969 3.276-101.731-18.325-12.944-9.127-25.137-19.266-36.468-30.336-7.414-7.204-15.249-13.957-23.484-20.208-14.568-10.33-17.002-15.71-19.807-27.362-2.405-11.892 1.292-24.195 9.868-32.781h42.42zm143.98-14.788h-281.1776v202.069h281.1876v-202.069z"/><path d="m284.093 148.188c10.329 2.354 19.316 8.706 24.997 17.673 2.544 4.268 3.226 9.388 1.883 14.177-3.026 9.738-15.048 15.799-28.964 15.799-4.338 0-8.666-.581-12.854-1.703-10.33-2.354-19.317-8.706-25.007-17.673-2.535-4.268-3.216-9.398-1.884-14.177 3.938-12.653 23.104-19.106 41.829-14.086zm-13.225-16.591c-20.328 0-37.641 9.978-42.71 26.269-2.555 8.636-1.453 17.944 3.046 25.738 7.574 12.544 19.877 21.501 34.134 24.827 27.06 7.243 53.299-3.286 59.742-23.985 2.544-8.636 1.442-17.934-3.046-25.738-7.574-12.544-19.877-21.501-34.134-24.837-5.551-1.503-11.281-2.264-17.032-2.284z"/><path d="m288.591 171.962c.521.952.361 1.393.301 1.553-.581 1.653-4.409 3.687-9.749 3.687-1.743 0-3.476-.21-5.169-.611-3.737-.581-7.084-2.625-9.318-5.681-.521-.951-.36-1.392-.3-1.552.751-2.155 7.003-4.95 14.918-3.076 3.737.591 7.083 2.625 9.317 5.68zm-5.931-20.037c-2.795-.651-5.651-.982-8.516-.982-11.101 0-20.719 5.16-23.664 13.505-1.543 4.479-1.082 9.398 1.262 13.516 4.188 6.772 11.021 11.471 18.845 12.954 14.377 3.386 28.504-2.104 32.181-12.504 1.543-4.478 1.082-9.407-1.263-13.525-4.177-6.783-11.02-11.491-18.835-12.974z"/></g></g></svg>