<svg fill="none" height="432" viewBox="0 0 432 432" width="432" xmlns="http://www.w3.org/2000/svg" xmlns:xlink="http://www.w3.org/1999/xlink"><clipPath id="a"><path d="m0 0h432v432h-432z"/></clipPath><g clip-path="url(#a)"><path d="m216.005 432.01c119.296 0 216.005-96.709 216.005-216.005 0-119.2963-96.709-216.005-216.005-216.005-119.2963 0-216.005 96.7087-216.005 216.005 0 119.296 96.7087 216.005 216.005 216.005z" fill="#0b3d91"/><g fill="#fff"><path d="m220.674 268.724c11.251 0 21.189-3.567 27.211-9.017 6.021 5.45 15.96 9.017 27.211 9.017 11.942 0 22.412-4.018 28.283-10.049 5.861 6.031 16.33 10.049 28.283 10.049 11.101 0 20.939-3.477 26.98-8.807v9.929c-6.041 5.34-15.869 8.806-26.98 8.806-11.943 0-22.412-4.017-28.283-10.048-5.861 6.031-16.331 10.048-28.283 10.048-11.251 0-21.19-3.566-27.211-9.016-6.022 5.45-15.96 9.016-27.211 9.016-12.363 0-23.154-4.308-28.884-10.69v-9.928c5.73 6.392 16.521 10.69 28.884 10.69z"/><path d="m219.872 233.147c11.251 0 21.19-3.567 27.211-9.017 6.022 5.45 15.96 9.017 27.211 9.017 11.943 0 22.412-4.017 28.283-10.049 5.861 6.032 16.331 10.049 28.283 10.049 11.101 0 20.94-3.476 26.981-8.806v9.928c-6.041 5.34-15.87 8.807-26.981 8.807-11.942 0-22.412-4.018-28.283-10.049-5.861 6.031-16.33 10.049-28.283 10.049-11.251 0-21.189-3.567-27.211-9.017-6.021 5.45-15.96 9.017-27.211 9.017-12.363 0-23.153-4.308-28.884-10.69v-9.929c5.731 6.392 16.521 10.69 28.884 10.69z"/><path d="m219.872 197.56c11.251 0 21.19-3.566 27.211-9.017 6.022 5.451 15.96 9.017 27.211 9.017 11.943 0 22.412-4.017 28.283-10.048 5.861 6.031 16.331 10.048 28.283 10.048 11.101 0 20.94-3.476 26.981-8.806v9.929c-6.041 5.34-15.87 8.806-26.981 8.806-11.942 0-22.412-4.018-28.283-10.049-5.861 6.031-16.33 10.049-28.283 10.049-11.251 0-21.189-3.567-27.211-9.017-6.021 5.45-15.96 9.017-27.211 9.017-12.363 0-23.153-4.308-28.884-10.69v-9.929c5.731 6.392 16.521 10.69 28.884 10.69z"/><path d="m114.595 167.183c38.442-60.623 124.433-81.1517 192.05-45.845.942.49 1.873.991 2.795 1.502-41.989-3.196-82.034 12.744-102.231 44.584-29.235 46.096-5.811 108.063 52.318 138.409 24.796 12.945 51.897 18.034 77.094 16.051-43.712 39.043-112.831 48.41-169.197 18.985-67.6169-35.306-91.2712-113.072-52.819-173.696z" stroke="#0b3d91" stroke-miterlimit="10" stroke-width="10"/><path d="m180.969 79.9699c88.266-20.6186 149.811 16.6212 189.626 104.0051.451.982.671 2.054.992 3.076-30.688-31.479-75.342-47.018-117.18-36.719-60.564 14.918-92.283 78.357-70.853 141.685 9.147 27.011 26.48 49.644 48.06 65.553-66.314-.47-128.691-41.127-149.48-102.542-24.9368-73.678 18.946-156.4031 98.825-175.0581z" stroke="#0b3d91" stroke-miterlimit="10" stroke-width="10"/></g><path d="m128.441 328.987c-59.6921-121.568 70.612-282.61 230.181-157.055" stroke="#0b3d91" stroke-miterlimit="10" stroke-width="10"/></g></svg>