<svg fill="none" height="432" viewBox="0 0 432 432" width="432" xmlns="http://www.w3.org/2000/svg" xmlns:xlink="http://www.w3.org/1999/xlink"><clipPath id="a"><path d="m0 0h432v432h-432z"/></clipPath><g clip-path="url(#a)"><path d="m216.005 432.01c119.296 0 216.005-96.709 216.005-216.005 0-119.2963-96.709-216.005-216.005-216.005-119.2963 0-216.005 96.7087-216.005 216.005 0 119.296 96.7087 216.005 216.005 216.005z" fill="#42636f"/><g stroke="#fff" stroke-miterlimit="10" stroke-width="10"><path d="m81.5529 212.458h135.9251"/><path d="m217.478 144.16c-42.129-.22-79.559-6.241-103.815-15.529-20.0275 23.544-32.1101 54.042-32.1101 87.374 0 74.53 60.4231 134.953 134.9531 134.953.321 0 .651 0 .972-.01v-206.778z"/><path d="m217.237 81.052c-.16 0-.32 0-.481 0-74.529 0-134.9527 60.423-134.9527 134.953 0 32.461 11.4615 62.237 30.5577 85.52 24.726-8.395 60.824-13.685 101.039-13.685 1.282 0 2.565 0 3.847.02v-206.808z"/><path d="m217.478 81.052c-45.405 0-82.214 60.423-82.214 134.953s36.809 134.953 82.214 134.953z"/><path d="m217.478 81.052v269.906c74.53 0 134.953-60.423 134.953-134.953s-60.423-134.953-134.953-134.953z"/><path d="m217.478 123.842v184.316c50.895 0 92.163-41.257 92.163-92.163 0-50.905-41.258-92.163-92.163-92.163z"/><path d="m217.478 166.713c27.221 0 49.282 22.061 49.282 49.282s-22.061 49.282-49.282 49.282z"/></g></g></svg>