<svg fill="none" height="432" viewBox="0 0 432 432" width="432" xmlns="http://www.w3.org/2000/svg" xmlns:xlink="http://www.w3.org/1999/xlink"><clipPath id="a"><path d="m0 0h432v432h-432z"/></clipPath><g clip-path="url(#a)"><path d="m216.005 432.01c119.296 0 216.005-96.709 216.005-216.005 0-119.2963-96.709-216.005-216.005-216.005-119.2963 0-216.005 96.7087-216.005 216.005 0 119.296 96.7087 216.005 216.005 216.005z" fill="#e6a059"/><g stroke-width="10"><path d="m184.296 60.7339v244.3481" stroke="#fff" stroke-miterlimit="10"/><path d="m62.1165 182.913h244.3485" stroke="#fff" stroke-miterlimit="10"/><path d="m272.501 98.3845-176.4209 169.0465" stroke="#fff" stroke-miterlimit="10"/><path d="m99.7671 94.6975 169.0469 176.4205" stroke="#fff" stroke-miterlimit="10"/><path d="m297.488 136.937-226.3847 91.932" stroke="#fff" stroke-miterlimit="10"/><path d="m138.329 69.7107 91.933 226.3843" stroke="#fff" stroke-miterlimit="10"/><path d="m73.6682 135.895 226.3948 91.932" stroke="#fff" stroke-miterlimit="10"/><path d="m232.837 68.6587-91.943 226.3943" stroke="#fff" stroke-miterlimit="10"/><path d="m184.296 258.455c41.72 0 75.541-33.822 75.541-75.542 0-41.721-33.821-75.542-75.541-75.542-41.721 0-75.542 33.821-75.542 75.542 0 41.72 33.821 75.542 75.542 75.542z" fill="#fff" stroke="#e6a059" stroke-miterlimit="10"/></g><path d="m263.985 371.276c58.099 0 105.197-47.098 105.197-105.197s-47.098-105.197-105.197-105.197-105.197 47.098-105.197 105.197 47.098 105.197 105.197 105.197z" fill="#e6a059"/><path d="m263.344 354.966c29.907 0 54.151-39.796 54.151-88.887s-24.244-88.887-54.151-88.887-54.152 39.796-54.152 88.887 24.245 88.887 54.152 88.887z" stroke="#fff" stroke-miterlimit="10" stroke-width="8"/><path d="m263.985 177.182-.641 177.784" stroke="#fff" stroke-miterlimit="10" stroke-width="8"/><path d="m352.872 263.745h-177.774" stroke="#fff" stroke-miterlimit="10" stroke-width="8"/><path d="m261.771 218.76c28.393 0 53.68-4.007 69.951-10.239 13.185 15.509 21.15 35.597 21.15 57.548 0 49.092-39.795 88.887-88.887 88.887s-88.887-39.795-88.887-88.887c0-21.38 7.554-40.997 20.128-56.326 16.281 5.531 40.065 9.017 66.555 9.017z" stroke="#fff" stroke-miterlimit="10" stroke-width="8"/><path d="m266.199 313.388c-28.393 0-53.681 4.007-69.951 10.239-13.185-15.509-21.15-35.597-21.15-57.548 0-49.092 39.795-88.887 88.887-88.887s88.887 39.795 88.887 88.887c0 21.38-7.555 40.997-20.128 56.326-16.281-5.531-40.065-9.017-66.555-9.017z" stroke="#fff" stroke-miterlimit="10" stroke-width="8"/></g></svg>