<svg fill="none" height="432" viewBox="0 0 432 432" width="432" xmlns="http://www.w3.org/2000/svg" xmlns:xlink="http://www.w3.org/1999/xlink"><clipPath id="a"><path d="m0 0h432v432h-432z"/></clipPath><g clip-path="url(#a)"><path d="m216.005 432.01c119.296 0 216.005-96.709 216.005-216.005 0-119.2963-96.709-216.005-216.005-216.005-119.2963 0-216.005 96.7087-216.005 216.005 0 119.296 96.7087 216.005 216.005 216.005z" fill="#5bc5ad"/><path d="m215.835 356.358c84.398 0 152.816-72.746 152.816-162.484h-305.6429c0 89.738 68.4179 162.484 152.8169 162.484z" fill="#fff"/><path d="m288.19 185.227c4.98.461 9.648 1.233 12.744 3.577 2.705 2.044 1.974 4.318.211 6.432-3.527 4.248-9.208 7.564-15.509 10.57-9.238 4.408-19.868 7.644-30.127 11.201-6.753 2.344-13.315 4.869-19.767 7.464-3.246 1.302-5.781 3.086-7.254 5.21-2.013 2.915-.891 5.63 2.064 8.185 3.266 2.835 7.494 5.2 12.394 7.093 9.768 3.767 19.757 7.354 29.735 10.951 8.015 2.885 16.211 5.62 23.374 9.177 4.479 2.214 8.456 4.649 11.051 7.715 3.376 3.987 2.735 7.894-.541 11.762-4.118 4.859-10.66 8.656-17.944 12.002-7.153 3.286-14.768 6.262-22.201 9.358-9.378 3.907-17.473 8.425-22.583 14.417-4.118 4.819-5.34 9.898-4.097 15.108 1.232 5.17 4.638 9.969 9.567 14.397 3.357 3.006-.07 6.532-6.682 6.512-38.182-.12-76.373-.12-114.565-.2-19.046-.04-2.665-19.006-21.711-18.986-6.141 0-25.5575-18.585-23.1029-22.111 6.2317-8.937-5.0996 17.442 5.1096 9.748 8.7764-6.632 18.9253-12.533 30.4773-17.703 10.72-4.799 22.652-8.446 34.895-11.832 9.478-2.625 18.625-5.601 27.021-9.228 5.029-2.174 9.708-4.548 13.084-7.614 4.589-4.178 4.228-8.486-.961-12.433-4.158-3.166-9.668-5.511-15.159-7.875-2.585-1.112-5.24-2.184-7.834-3.286-6.132-2.635-9.188-6.112-9.538-10.42-.461-5.69 3.446-10.509 9.387-14.908 7.915-5.881 18.295-10.159 29.586-13.786 10.81-3.476 22.251-6.191 34.054-8.455 14.467-2.776 29.024-5.461 42.469-9.618 4.028-1.243 7.735-2.836 11.412-4.389 1.352-.571 2.364-1.462 3.256-2.294 1.773-1.663 1.292-3.276-1.132-4.659-.411-.23-.812-.461-1.193-.711-.06-.04 0-.14 0-.341z" fill="#5bc5ad"/><g fill="#fff"><path d="m156.944 193.934 64.13-112.1307 64.592 112.3907z"/><path d="m63.0081 193.743 55.6639-79.208 55.655 80.36z"/><path d="m301.976 194.525 33.513-39.815 33.503 40.185z"/><path d="m62.9981 192.611h222.6579v4.569h-222.6579z"/></g><path d="m38.0614 190.156h342.1516v8.086h-342.1516z" fill="#5bc5ad"/></g></svg>