<?xml version="1.0" encoding="UTF-8"?>
<svg width="255px" height="255px" viewBox="0 0 255 255" version="1.1" xmlns="http://www.w3.org/2000/svg" xmlns:xlink="http://www.w3.org/1999/xlink">
    <!-- Generator: Sketch 49.3 (51167) - http://www.bohemiancoding.com/sketch -->
    <title>image-unavailable</title>
    <desc>Created with Sketch.</desc>
    <defs>
        <rect id="path-1" x="0" y="0" width="255" height="255"></rect>
    </defs>
    <g id="Page-1" stroke="none" stroke-width="1" fill="none" fill-rule="evenodd">
        <g id="image-unavailable">
            <mask id="mask-2" fill="white">
                <use xlink:href="#path-1"></use>
            </mask>
            <g id="Mask"></g>
            <g mask="url(#mask-2)">
                <rect id="Rectangle-path" fill="#1A1A1A" fill-rule="nonzero" x="0" y="0" width="255" height="255"></rect>
                <path d="M128,42 C133.624132,42 138.810981,43.3858507 143.560547,46.1575521 C148.310113,48.9292535 152.070747,52.6898872 154.842448,57.4394531 C157.614149,62.1890191 159,67.3758681 159,73 C159,78.6241319 157.614149,83.8109809 154.842448,88.5605469 C152.070747,93.3101128 148.310113,97.0707465 143.560547,99.8424479 C138.810981,102.614149 133.624132,104 128,104 C122.375868,104 117.189019,102.614149 112.439453,99.8424479 C107.689887,97.0707465 103.929253,93.3101128 101.157552,88.5605469 C98.3858507,83.8109809 97,78.6241319 97,73 C97,67.3758681 98.3858507,62.1890191 101.157552,57.4394531 C103.929253,52.6898872 107.689887,48.9292535 112.439453,46.1575521 C117.189019,43.3858507 122.375868,42 128,42 Z M139.059896,63.0299479 C139.006076,63.0568576 138.878255,63.1846788 138.676432,63.4134115 C138.474609,63.6421441 138.292969,63.7699653 138.13151,63.796875 C138.18533,63.796875 138.245877,63.7296007 138.313151,63.5950521 C138.380425,63.4605035 138.4477,63.3125 138.514974,63.1510417 C138.582248,62.9895833 138.62934,62.8953993 138.65625,62.8684896 C138.817708,62.6801215 139.113715,62.4782986 139.544271,62.2630208 C139.921007,62.1015625 140.62066,61.9401042 141.643229,61.7786458 C142.55816,61.5633681 143.244358,61.7113715 143.701823,62.2226563 C143.648003,62.1688368 143.775825,61.9939236 144.085286,61.6979167 C144.394748,61.4019097 144.589844,61.2404514 144.670573,61.2135417 C144.751302,61.1597222 144.953125,61.0991753 145.276042,61.031901 C145.598958,60.9646267 145.800781,60.8637153 145.88151,60.7291667 L145.96224,59.8411458 C145.639323,59.8680556 145.403863,59.7738715 145.255859,59.5585938 C145.107856,59.343316 145.020399,59.0607639 144.99349,58.7109375 C144.99349,58.7647569 144.91276,58.8723958 144.751302,59.0338542 C144.751302,58.8454861 144.690755,58.7378472 144.569661,58.7109375 C144.448568,58.6840278 144.293837,58.6974826 144.105469,58.7513021 C143.917101,58.8051215 143.796007,58.8185764 143.742187,58.7916667 C143.47309,58.7109375 143.271267,58.610026 143.136719,58.4889323 C143.00217,58.3678385 142.894531,58.1458333 142.813802,57.8229167 C142.733073,57.5 142.679253,57.2981771 142.652344,57.2174479 C142.598524,57.0828993 142.470703,56.9416233 142.26888,56.7936198 C142.067057,56.6456163 141.939236,56.5043403 141.885417,56.3697917 C141.858507,56.3159722 141.82487,56.2419705 141.784505,56.1477865 C141.744141,56.0536024 141.703776,55.9661458 141.663411,55.8854167 C141.623047,55.8046875 141.569227,55.7306858 141.501953,55.6634115 C141.434679,55.5961372 141.360677,55.5625 141.279948,55.5625 C141.199219,55.5625 141.105035,55.6297743 140.997396,55.7643229 C140.889757,55.8988715 140.788845,56.0334201 140.694661,56.1679688 C140.600477,56.3025174 140.539931,56.3697917 140.513021,56.3697917 C140.432292,56.3159722 140.351562,56.2957899 140.270833,56.3092448 C140.190104,56.3226997 140.129557,56.3361545 140.089193,56.3496094 C140.048828,56.3630642 139.988281,56.4034288 139.907552,56.4707031 C139.826823,56.5379774 139.759549,56.5850694 139.705729,56.6119792 C139.625,56.6657986 139.510634,56.7061632 139.36263,56.7330729 C139.214627,56.7599826 139.10026,56.7868924 139.019531,56.8138021 C139.423177,56.6792535 139.409722,56.53125 138.979167,56.3697917 C138.710069,56.2621528 138.494792,56.2217882 138.333333,56.2486979 C138.575521,56.141059 138.676432,55.9796007 138.636068,55.7643229 C138.595703,55.5490451 138.481337,55.3606771 138.292969,55.1992188 L138.494792,55.1992188 C138.467882,55.0915799 138.353516,54.9772135 138.151693,54.8561198 C137.94987,54.735026 137.71441,54.6206597 137.445312,54.5130208 C137.176215,54.4053819 137.001302,54.3246528 136.920573,54.2708333 C136.705295,54.1362847 136.24783,54.0084635 135.548177,53.8873698 C134.848524,53.766276 134.404514,53.7595486 134.216146,53.8671875 C134.081597,54.0286458 134.02105,54.1699219 134.034505,54.2910156 C134.04796,54.4121094 134.10178,54.6004774 134.195964,54.8561198 C134.290148,55.1117622 134.33724,55.2799479 134.33724,55.3606771 C134.364149,55.5221354 134.290148,55.6970486 134.115234,55.8854167 C133.940321,56.0737847 133.852865,56.2352431 133.852865,56.3697917 C133.852865,56.5581597 134.041233,56.7667101 134.417969,56.9954427 C134.794705,57.2241753 134.929253,57.5134549 134.821615,57.8632812 C134.740885,58.078559 134.525608,58.2938368 134.175781,58.5091146 C133.825955,58.7243924 133.610677,58.8858507 133.529948,58.9934896 C133.395399,59.2087674 133.375217,59.4576823 133.469401,59.7402344 C133.563585,60.0227865 133.704861,60.2447917 133.893229,60.40625 C133.947049,60.4600694 133.967231,60.5138889 133.953776,60.5677083 C133.940321,60.6215278 133.893229,60.6820747 133.8125,60.749349 C133.731771,60.8166233 133.657769,60.8704427 133.590495,60.9108073 C133.52322,60.9511719 133.435764,60.9982639 133.328125,61.0520833 L133.207031,61.1328125 C132.911024,61.2673611 132.6352,61.1866319 132.379557,60.890625 C132.123915,60.5946181 131.942274,60.2447917 131.834635,59.8411458 C131.646267,59.1684028 131.43099,58.7647569 131.188802,58.6302083 C130.569878,58.4149306 130.179688,58.4283854 130.018229,58.6705729 C129.883681,58.3207465 129.332031,57.9709201 128.363281,57.6210938 C127.690538,57.3789062 126.910156,57.3250868 126.022135,57.4596354 C126.183594,57.4327257 126.183594,57.2309028 126.022135,56.8541667 C125.833767,56.4505208 125.578125,56.2890625 125.255208,56.3697917 C125.335937,56.2083333 125.389757,55.9728733 125.416667,55.6634115 C125.443576,55.3539497 125.457031,55.172309 125.457031,55.1184896 C125.53776,54.7686632 125.699219,54.4592014 125.941406,54.1901042 C125.968316,54.1631944 126.0625,54.0488281 126.223958,53.8470052 C126.385417,53.6451823 126.513238,53.4635417 126.607422,53.3020833 C126.701606,53.140625 126.708333,53.0598958 126.627604,53.0598958 C127.569444,53.1675347 128.242188,53.0195312 128.645833,52.6158854 C128.780382,52.4813368 128.935113,52.2526042 129.110026,51.9296875 C129.284939,51.6067708 129.426215,51.3780382 129.533854,51.2434896 C129.776042,51.0820312 129.96441,51.0080295 130.098958,51.0214844 C130.233507,51.0349392 130.428602,51.108941 130.684245,51.2434896 C130.939887,51.3780382 131.134983,51.4453125 131.269531,51.4453125 C131.646267,51.4722222 131.854818,51.3242188 131.895182,51.0013021 C131.935547,50.6783854 131.834635,50.4092882 131.592448,50.1940104 C131.915365,50.2209201 131.955729,49.9921875 131.713542,49.5078125 C131.578993,49.3194444 131.471354,49.1983507 131.390625,49.1445312 C131.067708,49.0368924 130.704427,49.1041667 130.300781,49.3463542 C130.085503,49.4539931 130.112413,49.5616319 130.38151,49.6692708 C130.354601,49.6423611 130.22678,49.7836372 129.998047,50.093099 C129.769314,50.4025608 129.547309,50.6380208 129.332031,50.7994792 C129.116753,50.9609375 128.901476,50.8936632 128.686198,50.5976562 C128.659288,50.5707465 128.585286,50.3891059 128.464193,50.0527344 C128.343099,49.7163628 128.215278,49.5347222 128.080729,49.5078125 C127.865451,49.5078125 127.650174,49.7096354 127.434896,50.1132812 C127.515625,49.8980035 127.367622,49.6961806 126.990885,49.5078125 C126.614149,49.3194444 126.291233,49.2118056 126.022135,49.1848958 C126.53342,48.8619792 126.425781,48.4986979 125.699219,48.0950521 C125.510851,47.9874132 125.235026,47.9201389 124.871745,47.8932292 C124.508464,47.8663194 124.246094,47.9201389 124.084635,48.0546875 C123.950087,48.2430556 123.876085,48.3977865 123.86263,48.5188802 C123.849175,48.639974 123.91645,48.7476128 124.064453,48.8417969 C124.212457,48.9359809 124.353733,49.0099826 124.488281,49.0638021 C124.62283,49.1176215 124.777561,49.171441 124.952474,49.2252604 C125.127387,49.2790799 125.241753,49.3194444 125.295573,49.3463542 C125.672309,49.6154514 125.779948,49.8038194 125.61849,49.9114583 C125.56467,49.9383681 125.450304,49.9854601 125.275391,50.0527344 C125.100477,50.1200087 124.945747,50.1805556 124.811198,50.234375 C124.676649,50.2881944 124.59592,50.3420139 124.56901,50.3958333 C124.488281,50.5034722 124.488281,50.6918403 124.56901,50.9609375 C124.64974,51.2300347 124.62283,51.4184028 124.488281,51.5260417 C124.353733,51.3914931 124.232639,51.156033 124.125,50.8196615 C124.017361,50.4832899 123.923177,50.2612847 123.842448,50.1536458 C124.030816,50.3958333 123.694444,50.4765625 122.833333,50.3958333 L122.429687,50.3554688 C122.322049,50.3554688 122.106771,50.3823785 121.783854,50.4361979 C121.460938,50.4900174 121.185113,50.5034722 120.95638,50.4765625 C120.727648,50.4496528 120.546007,50.3420139 120.411458,50.1536458 C120.303819,49.9383681 120.303819,49.6692708 120.411458,49.3463542 C120.438368,49.2387153 120.492188,49.2118056 120.572917,49.265625 C120.465278,49.1848958 120.317274,49.0570747 120.128906,48.8821615 C119.940538,48.7072483 119.80599,48.5928819 119.72526,48.5390625 C118.487413,48.9427083 117.222656,49.4943576 115.93099,50.1940104 C116.092448,50.2209201 116.253906,50.2074653 116.415365,50.1536458 C116.549913,50.0998264 116.724826,50.0123698 116.940104,49.891276 C117.155382,49.7701823 117.289931,49.6961806 117.34375,49.6692708 C118.258681,49.2925347 118.823785,49.1983507 119.039062,49.3867188 L119.240885,49.1848958 C119.617622,49.6154514 119.886719,49.9518229 120.048177,50.1940104 C119.859809,50.0863715 119.456163,50.0729167 118.83724,50.1536458 C118.299045,50.3151042 118.003038,50.4765625 117.949219,50.6380208 C118.137587,50.9609375 118.204861,51.203125 118.151042,51.3645833 C118.043403,51.2838542 117.888672,51.1493056 117.686849,50.9609375 C117.485026,50.7725694 117.289931,50.624566 117.101562,50.5169271 C116.913194,50.4092882 116.711372,50.3420139 116.496094,50.3151042 C116.065538,50.3151042 115.769531,50.328559 115.608073,50.3554688 C111.679253,52.5082465 108.517361,55.4952257 106.122396,59.3164062 C106.310764,59.5047743 106.472222,59.6124132 106.606771,59.6393229 C106.71441,59.6662326 106.781684,59.7873264 106.808594,60.0026042 C106.835503,60.2178819 106.869141,60.3658854 106.909505,60.4466146 C106.94987,60.5273438 107.104601,60.4869792 107.373698,60.3255208 C107.615885,60.5407986 107.65625,60.796441 107.494792,61.0924479 C107.521701,61.0655382 108.113715,61.4288194 109.270833,62.1822917 C109.782118,62.6397569 110.06467,62.922309 110.11849,63.0299479 C110.199219,63.3259549 110.06467,63.5681424 109.714844,63.7565104 C109.687934,63.702691 109.56684,63.5815972 109.351562,63.3932292 C109.136285,63.2048611 109.015191,63.1510417 108.988281,63.2317708 C108.907552,63.3663194 108.91428,63.6152344 109.008464,63.9785156 C109.102648,64.3417969 109.243924,64.5099826 109.432292,64.4830729 C109.243924,64.4830729 109.116102,64.6983507 109.048828,65.1289062 C108.981554,65.5594618 108.947917,66.0371094 108.947917,66.561849 C108.947917,67.0865885 108.934462,67.4027778 108.907552,67.5104167 L108.988281,67.5507812 C108.907552,67.8736979 108.981554,68.3378906 109.210286,68.9433594 C109.439019,69.5488281 109.728299,69.8111979 110.078125,69.7304688 C109.728299,69.8111979 109.997396,70.3897569 110.885417,71.4661458 C111.046875,71.6814236 111.154514,71.8025174 111.208333,71.8294271 C111.289062,71.8832465 111.450521,71.984158 111.692708,72.1321615 C111.934896,72.2801649 112.136719,72.4147135 112.298177,72.5358073 C112.459635,72.656901 112.594184,72.7981771 112.701823,72.9596354 C112.809462,73.094184 112.94401,73.3969184 113.105469,73.8678385 C113.266927,74.3387587 113.455295,74.6549479 113.670573,74.8164063 C113.616753,74.9778646 113.744575,75.2469618 114.054036,75.6236979 C114.363498,76.000434 114.504774,76.3098958 114.477865,76.5520833 C114.450955,76.5520833 114.417318,76.5655382 114.376953,76.5924479 C114.336589,76.6193576 114.302951,76.6328125 114.276042,76.6328125 C114.356771,76.8211806 114.565321,77.0095486 114.901693,77.1979167 C115.238064,77.3862847 115.446615,77.5611979 115.527344,77.7226563 C115.554253,77.8033854 115.581163,77.937934 115.608073,78.1263021 C115.634983,78.3146701 115.675347,78.4626736 115.729167,78.5703125 C115.782986,78.6779514 115.890625,78.7048611 116.052083,78.6510417 C116.105903,78.1128472 115.782986,77.2786458 115.083333,76.1484375 C114.679688,75.4756944 114.450955,75.0855035 114.397135,74.9778646 C114.316406,74.843316 114.242405,74.6347656 114.17513,74.3522135 C114.107856,74.0696615 114.047309,73.874566 113.99349,73.7669271 C114.047309,73.7669271 114.128038,73.7871094 114.235677,73.827474 C114.343316,73.8678385 114.457682,73.9149306 114.578776,73.96875 C114.69987,74.0225694 114.800781,74.0763889 114.88151,74.1302083 C114.96224,74.1840278 114.989149,74.2243924 114.96224,74.2513021 C114.88151,74.4396701 114.90842,74.6751302 115.042969,74.9576823 C115.177517,75.2402344 115.338976,75.4891493 115.527344,75.7044271 C115.715712,75.9197049 115.944444,76.1753472 116.213542,76.4713542 C116.482639,76.7673611 116.644097,76.9422743 116.697917,76.9960938 C116.859375,77.1575521 117.047743,77.4199219 117.263021,77.7832031 C117.478299,78.1464844 117.478299,78.328125 117.263021,78.328125 C117.505208,78.328125 117.774306,78.4626736 118.070312,78.7317708 C118.366319,79.0008681 118.595052,79.2699653 118.75651,79.5390625 C118.891059,79.7543403 118.998698,80.1041667 119.079427,80.5885417 C119.160156,81.0729167 119.227431,81.3958333 119.28125,81.5572917 C119.335069,81.7456597 119.449436,81.9273003 119.624349,82.1022135 C119.799262,82.2771267 119.967448,82.4049479 120.128906,82.4856771 L120.77474,82.8085938 L121.299479,83.0911458 C121.434028,83.1449653 121.682943,83.2862413 122.046224,83.514974 C122.409505,83.7437066 122.698785,83.8984375 122.914062,83.9791667 C123.18316,84.0868056 123.398437,84.140625 123.559896,84.140625 C123.721354,84.140625 123.91645,84.1069878 124.145182,84.0397135 C124.373915,83.9724392 124.555556,83.9253472 124.690104,83.8984375 C125.09375,83.8446181 125.483941,84.046441 125.860677,84.5039063 C126.237413,84.9613715 126.519965,85.2439236 126.708333,85.3515625 C127.677083,85.8628472 128.417101,86.0108507 128.928385,85.7955729 C128.874566,85.8224826 128.881293,85.9233941 128.948568,86.0983073 C129.015842,86.2732205 129.123481,86.4817708 129.271484,86.7239583 C129.419488,86.9661458 129.540582,87.1612413 129.634766,87.3092448 C129.72895,87.4572483 129.802951,87.5716146 129.856771,87.6523438 C129.991319,87.8138021 130.233507,88.015625 130.583333,88.2578125 C130.93316,88.5 131.175347,88.7018229 131.309896,88.8632813 C131.471354,88.7556424 131.565538,88.6345486 131.592448,88.5 C131.511719,88.7152778 131.605903,88.984375 131.875,89.3072917 C132.144097,89.6302083 132.386285,89.7647569 132.601562,89.7109375 C132.978299,89.6302083 133.166667,89.1996528 133.166667,88.4192708 C132.332465,88.8229167 131.673177,88.5807292 131.188802,87.6927083 C131.188802,87.6657986 131.155165,87.5917969 131.087891,87.4707031 C131.020616,87.3496094 130.966797,87.2352431 130.926432,87.1276042 C130.886068,87.0199653 130.852431,86.905599 130.825521,86.7845052 C130.798611,86.6634115 130.798611,86.5625 130.825521,86.4817708 C130.852431,86.4010417 130.919705,86.3606771 131.027344,86.3606771 C131.269531,86.3606771 131.40408,86.3135851 131.43099,86.219401 C131.457899,86.125217 131.43099,85.9570313 131.35026,85.7148438 C131.269531,85.4726563 131.215712,85.2977431 131.188802,85.1901042 C131.161892,84.9748264 131.013889,84.7057292 130.744792,84.3828125 C130.475694,84.0598958 130.314236,83.8580729 130.260417,83.7773438 C130.125868,84.0195313 129.91059,84.1271701 129.614583,84.1002604 C129.318576,84.0733507 129.103299,83.9522569 128.96875,83.7369792 C128.96875,83.7638889 128.948568,83.8378906 128.908203,83.9589844 C128.867839,84.0800781 128.847656,84.1675347 128.847656,84.2213542 C128.49783,84.2213542 128.296007,84.2078993 128.242188,84.1809896 C128.269097,84.1002604 128.302734,83.8648003 128.343099,83.4746094 C128.383464,83.0844184 128.430556,82.781684 128.484375,82.5664063 C128.511285,82.4587674 128.585286,82.297309 128.70638,82.0820313 C128.827474,81.8667535 128.928385,81.671658 129.009115,81.4967448 C129.089844,81.3218316 129.143663,81.1536458 129.170573,80.9921875 C129.197483,80.8307292 129.136936,80.702908 128.988932,80.608724 C128.840929,80.5145399 128.605469,80.4809028 128.282552,80.5078125 C127.771267,80.5347222 127.421441,80.8038194 127.233073,81.3151042 C127.206163,81.3958333 127.165799,81.5371094 127.111979,81.7389323 C127.05816,81.9407552 126.990885,82.0954861 126.910156,82.203125 C126.829427,82.3107639 126.708333,82.4049479 126.546875,82.4856771 C126.358507,82.5664063 126.03559,82.593316 125.578125,82.5664063 C125.12066,82.5394965 124.797743,82.4722222 124.609375,82.3645833 C124.259549,82.1493056 123.956814,81.7591146 123.701172,81.1940104 C123.44553,80.6289063 123.317708,80.1310764 123.317708,79.7005208 C123.317708,79.4314236 123.351345,79.0748698 123.41862,78.6308594 C123.485894,78.186849 123.526259,77.8504774 123.539714,77.6217448 C123.553168,77.3930122 123.479167,77.0633681 123.317708,76.6328125 C123.398437,76.5789931 123.519531,76.4511719 123.68099,76.249349 C123.842448,76.047526 123.976997,75.90625 124.084635,75.8255208 C124.138455,75.7986111 124.199002,75.7784288 124.266276,75.764974 C124.33355,75.7515191 124.394097,75.7515191 124.447917,75.764974 C124.501736,75.7784288 124.555556,75.7582465 124.609375,75.7044271 C124.663194,75.6506076 124.703559,75.5698785 124.730469,75.4622396 C124.703559,75.4353299 124.64974,75.3949653 124.56901,75.3411458 C124.488281,75.2604167 124.434462,75.2200521 124.407552,75.2200521 C124.59592,75.3007813 124.979384,75.280599 125.557943,75.1595052 C126.136502,75.0384115 126.50651,75.0585938 126.667969,75.2200521 C127.071615,75.516059 127.367622,75.4891493 127.55599,75.1393229 C127.55599,75.1124132 127.522352,74.984592 127.455078,74.7558594 C127.387804,74.5271267 127.381076,74.3454861 127.434896,74.2109375 C127.569444,74.9375 127.959635,75.0585938 128.605469,74.5742188 C128.686198,74.6549479 128.894748,74.7222222 129.23112,74.7760417 C129.567491,74.8298611 129.802951,74.8971354 129.9375,74.9778646 C130.018229,75.031684 130.112413,75.1056858 130.220052,75.1998698 C130.327691,75.2940538 130.401693,75.3546007 130.442057,75.3815104 C130.482422,75.4084201 130.549696,75.4016927 130.64388,75.3613281 C130.738064,75.3209635 130.852431,75.2335069 130.986979,75.0989583 C131.256076,75.4756944 131.417535,75.7986111 131.471354,76.0677083 C131.767361,77.1440972 132.023003,77.7361111 132.238281,77.84375 C132.426649,77.9244792 132.574653,77.9513889 132.682292,77.9244792 C132.789931,77.8975694 132.850477,77.7697483 132.863932,77.5410156 C132.877387,77.312283 132.877387,77.1239149 132.863932,76.9759115 C132.850477,76.827908 132.830295,76.6597222 132.803385,76.4713542 L132.763021,76.1484375 L132.763021,75.421875 L132.722656,75.0989583 C132.31901,75.0182292 132.070095,74.8567708 131.975911,74.6145833 C131.881727,74.3723958 131.90191,74.1234809 132.036458,73.8678385 C132.171007,73.6121962 132.37283,73.3632813 132.641927,73.1210938 C132.668837,73.094184 132.776476,73.047092 132.964844,72.9798177 C133.153212,72.9125434 133.361762,72.8250868 133.590495,72.7174479 C133.819227,72.609809 133.987413,72.5021701 134.095052,72.3945312 C134.660156,71.8832465 134.861979,71.4123264 134.700521,70.9817708 C134.888889,70.9817708 135.036892,70.8606771 135.144531,70.6184896 C135.117622,70.6184896 135.050347,70.578125 134.942708,70.4973958 C134.835069,70.4166667 134.734158,70.3493924 134.639974,70.2955729 C134.54579,70.2417535 134.485243,70.2148438 134.458333,70.2148438 C134.700521,70.0802951 134.727431,69.8650174 134.539062,69.5690104 C134.673611,69.4882813 134.774523,69.3402778 134.841797,69.125 C134.909071,68.9097222 135.009983,68.7751736 135.144531,68.7213542 C135.386719,69.0442708 135.669271,69.0711806 135.992188,68.8020833 C136.180556,68.5868056 136.19401,68.3715278 136.032552,68.15625 C136.167101,67.9678819 136.442925,67.8266059 136.860026,67.7324219 C137.277127,67.6382378 137.526042,67.5104167 137.606771,67.3489583 C137.795139,67.4027778 137.902778,67.3758681 137.929687,67.2682292 C137.956597,67.1605903 137.970052,66.9991319 137.970052,66.7838542 C137.970052,66.5685764 138.010417,66.4071181 138.091146,66.2994792 C138.198785,66.1649306 138.400608,66.0438368 138.696615,65.9361979 C138.992622,65.828559 139.167535,65.7612847 139.221354,65.734375 L139.907552,65.2903646 C139.988281,65.1827257 139.988281,65.1289062 139.907552,65.1289062 C140.391927,65.1827257 140.809028,65.0347222 141.158854,64.6848958 C141.427951,64.3888889 141.347222,64.1197917 140.916667,63.8776042 C140.997396,63.7161458 140.957031,63.5883247 140.795573,63.4941406 C140.634115,63.3999566 140.432292,63.3259549 140.190104,63.2721354 C140.270833,63.2452257 140.425564,63.2384983 140.654297,63.2519531 C140.88303,63.265408 141.024306,63.2452257 141.078125,63.1914063 C141.481771,62.922309 141.387587,62.7070313 140.795573,62.5455729 C140.338108,62.4110243 139.759549,62.5724826 139.059896,63.0299479 Z M132.480469,98.4296875 C138.023872,97.4609375 142.746528,94.9179687 146.648438,90.8007812 C146.567708,90.7200521 146.399523,90.6595052 146.14388,90.6191406 C145.888238,90.578776 145.720052,90.531684 145.639323,90.4778646 C145.154948,90.2894965 144.832031,90.1818576 144.670573,90.1549479 C144.697483,89.9665799 144.663845,89.7916667 144.569661,89.6302083 C144.475477,89.46875 144.367839,89.3476562 144.246745,89.2669271 C144.125651,89.1861979 143.957465,89.078559 143.742188,88.9440104 C143.52691,88.8094618 143.378906,88.7152778 143.298177,88.6614583 C143.244358,88.6076389 143.150174,88.5269097 143.015625,88.4192708 C142.881076,88.3116319 142.786892,88.2376302 142.733073,88.1972656 C142.679253,88.156901 142.578342,88.0963542 142.430339,88.015625 C142.282335,87.9348958 142.167969,87.9079861 142.08724,87.9348958 C142.00651,87.9618056 141.871962,87.9752604 141.683594,87.9752604 L141.5625,88.015625 C141.481771,88.0425347 141.407769,88.0761719 141.340495,88.1165365 C141.27322,88.156901 141.199219,88.1972656 141.11849,88.2376302 C141.03776,88.2779948 140.983941,88.3183594 140.957031,88.358724 C140.930122,88.3990885 140.930122,88.4327257 140.957031,88.4596354 C140.391927,88.0021701 139.907552,87.7061632 139.503906,87.5716146 C139.369358,87.5447049 139.221354,87.4707031 139.059896,87.3496094 C138.898438,87.2285156 138.757161,87.1343316 138.636068,87.0670573 C138.514974,86.999783 138.380425,86.9796007 138.232422,87.0065104 C138.084418,87.0334201 137.929688,87.1276042 137.768229,87.2890625 C137.633681,87.4236111 137.552951,87.625434 137.526042,87.8945312 C137.499132,88.1636285 137.472222,88.3385417 137.445312,88.4192708 C137.256944,88.2847222 137.256944,88.0492622 137.445312,87.7128906 C137.633681,87.3765191 137.66059,87.1276042 137.526042,86.9661458 C137.445312,86.8046875 137.304036,86.7441406 137.102214,86.7845052 C136.900391,86.8248698 136.738932,86.8854167 136.617839,86.9661458 C136.496745,87.046875 136.342014,87.1612413 136.153646,87.3092448 C135.965278,87.4572483 135.844184,87.5447049 135.790365,87.5716146 C135.736545,87.5985243 135.622179,87.672526 135.447266,87.7936198 C135.272352,87.9147135 135.157986,88.015625 135.104167,88.0963542 C135.023438,88.2039931 134.942708,88.3654514 134.861979,88.5807292 C134.78125,88.7960069 134.713976,88.9440104 134.660156,89.0247396 C134.606337,88.9171007 134.451606,88.8296441 134.195964,88.7623698 C133.940321,88.6950955 133.8125,88.6210937 133.8125,88.5403646 C133.866319,88.8094618 133.920139,89.2803819 133.973958,89.953125 C134.027778,90.6258681 134.095052,91.1371528 134.175781,91.4869792 C134.364149,92.3211806 134.202691,92.9670139 133.691406,93.4244792 C132.964844,94.0972222 132.574653,94.6354167 132.520833,95.0390625 C132.413194,95.6310764 132.574653,95.9809028 133.005208,96.0885417 C133.005208,96.2769097 132.897569,96.5527344 132.682292,96.9160156 C132.467014,97.2792969 132.37283,97.5685764 132.39974,97.7838542 C132.39974,97.9453125 132.426649,98.1605903 132.480469,98.4296875 Z" id="Shape" fill="#484848" fill-rule="nonzero"></path>
                <path d="M40.5450162,132.593375 L40.4590733,132.593375 L40.4590733,159.579459 L37.5370133,159.579459 L37.5370133,128.64 L40.8458165,128.64 L58.7219485,155.669055 L58.8078914,155.669055 L58.8078914,128.64 L61.7299515,128.64 L61.7299515,159.579459 L58.3352053,159.579459 L40.5450162,132.593375 Z M77.1137381,160.18106 C75.6813486,160.152412 74.3420845,159.894586 73.0959056,159.407573 C71.8497267,158.920561 70.761127,158.190053 69.8300738,157.216028 C68.8990206,156.242003 68.161351,155.024491 67.617043,153.563453 C67.072735,152.102416 66.8005851,150.397898 66.8005851,148.449848 C66.8005851,146.816924 67.0154403,145.291452 67.4451571,143.873387 C67.874874,142.455321 68.5194396,141.216323 69.3788733,140.156354 C70.2383071,139.096386 71.3125831,138.258451 72.6017337,137.642523 C73.8908842,137.026596 75.3948707,136.718637 77.1137381,136.718637 C78.8612534,136.718637 80.3795635,137.026596 81.6687141,137.642523 C82.9578646,138.258451 84.0321407,139.089224 84.8915744,140.134869 C85.7510081,141.180513 86.3884119,142.419511 86.8038049,143.851901 C87.2191978,145.28429 87.4268912,146.816924 87.4268912,148.449848 C87.4268912,150.226011 87.1833886,151.830263 86.6963762,153.262653 C86.2093637,154.695042 85.5146652,155.926879 84.6122598,156.958199 C83.7098544,157.98952 82.6212547,158.784484 81.346428,159.343116 C80.0716013,159.901748 78.6607188,160.18106 77.1137381,160.18106 Z M84.676717,148.449848 C84.676717,147.13205 84.5334802,145.900213 84.2470023,144.754302 C83.9605244,143.60839 83.5164903,142.612894 82.9148867,141.767784 C82.3132831,140.922675 81.5398044,140.256623 80.5944273,139.769611 C79.6490502,139.282599 78.4888321,139.039096 77.1137381,139.039096 C75.767292,139.039096 74.6142357,139.304084 73.6545347,139.834068 C72.6948337,140.364052 71.9141931,141.065913 71.3125895,141.93967 C70.7109859,142.813428 70.2669518,143.816086 69.9804739,144.947673 C69.693996,146.079261 69.5507592,147.246641 69.5507592,148.449848 C69.5507592,149.824942 69.7154815,151.092588 70.0449311,152.252823 C70.3743807,153.413059 70.854224,154.408555 71.4844754,155.239341 C72.1147268,156.070127 72.9025292,156.714692 73.8479063,157.173057 C74.7932834,157.631421 75.8818831,157.8606 77.1137381,157.8606 C78.4601843,157.8606 79.6132406,157.595612 80.5729416,157.065628 C81.5326425,156.535644 82.3132831,155.826622 82.9148867,154.93854 C83.5164903,154.050459 83.9605244,153.047801 84.2470023,151.930537 C84.5334802,150.813273 84.676717,149.653055 84.676717,148.449848 Z M104.486565,159.579459 L104.486565,137.320237 L107.064853,137.320237 L107.064853,159.579459 L104.486565,159.579459 Z M104.357651,132.464461 L104.357651,128.64 L107.193768,128.64 L107.193768,132.464461 L104.357651,132.464461 Z M115.874005,159.579459 L113.295717,159.579459 L113.295717,137.320237 L115.874005,137.320237 L115.874005,140.672012 L115.959948,140.672012 C116.618847,139.382861 117.56421,138.401689 118.796065,137.728466 C120.02792,137.055243 121.374346,136.718637 122.835383,136.718637 C123.866704,136.718637 124.740448,136.833226 125.456643,137.062408 C126.172838,137.291591 126.781594,137.59955 127.282931,137.986295 C127.784267,138.37304 128.199654,138.824236 128.529103,139.339896 C128.858553,139.855557 129.137865,140.41418 129.367047,141.015784 C130.11189,139.554746 131.107385,138.473308 132.353564,137.771438 C133.599743,137.069567 135.024949,136.718637 136.629226,136.718637 C138.147559,136.718637 139.357909,136.969301 140.260315,137.470637 C141.16272,137.971974 141.857419,138.630863 142.344431,139.447325 C142.831444,140.263787 143.153727,141.201988 143.311289,142.261956 C143.468852,143.321925 143.547632,144.410524 143.547632,145.527788 L143.547632,159.579459 L140.969344,159.579459 L140.969344,144.195673 C140.969344,142.591396 140.632738,141.330912 139.959515,140.414183 C139.286292,139.497454 138.032969,139.039096 136.199511,139.039096 C135.254134,139.039096 134.34458,139.246789 133.470822,139.662182 C132.597065,140.077575 131.830748,140.714979 131.171849,141.574413 C130.885371,141.946834 130.64903,142.383706 130.462819,142.885043 C130.276609,143.386379 130.12621,143.909193 130.011619,144.453501 C129.897028,144.997809 129.818248,145.542109 129.775276,146.086417 C129.732304,146.630725 129.710819,147.132054 129.710819,147.590419 L129.710819,159.579459 L127.13253,159.579459 L127.13253,144.195673 C127.13253,142.591396 126.795924,141.330912 126.122701,140.414183 C125.449478,139.497454 124.196156,139.039096 122.362697,139.039096 C121.41732,139.039096 120.507766,139.246789 119.634009,139.662182 C118.760251,140.077575 117.993934,140.714979 117.335035,141.574413 C117.048557,141.946834 116.812216,142.383706 116.626006,142.885043 C116.439795,143.386379 116.289397,143.909193 116.174805,144.453501 C116.060214,144.997809 115.981434,145.542109 115.938462,146.086417 C115.895491,146.630725 115.874005,147.132054 115.874005,147.590419 L115.874005,159.579459 Z M164.002053,147.891219 C162.913437,148.349584 161.810513,148.650381 160.693249,148.79362 C159.575986,148.936859 158.458738,149.051448 157.341475,149.137392 C155.364777,149.280631 153.824981,149.724665 152.722042,150.469507 C151.619102,151.21435 151.06764,152.345921 151.06764,153.864254 C151.06764,154.551801 151.203715,155.146233 151.475869,155.64757 C151.748023,156.148906 152.106115,156.564293 152.550156,156.893742 C152.994196,157.223192 153.509849,157.466694 154.097129,157.624257 C154.684408,157.78182 155.278841,157.8606 155.880445,157.8606 C156.911765,157.8606 157.914423,157.731687 158.888448,157.473857 C159.862473,157.216027 160.729055,156.822126 161.488222,156.292142 C162.247388,155.762158 162.856144,155.088945 163.314509,154.272483 C163.772874,153.45602 164.002053,152.489172 164.002053,151.371908 L164.002053,147.891219 Z M159.661934,146.602075 C160.148947,146.544779 160.729056,146.458837 161.402279,146.344246 C162.075502,146.229655 162.626963,146.072094 163.05668,145.87156 C163.486397,145.671025 163.751385,145.334419 163.851653,144.86173 C163.95192,144.389042 164.002053,143.95217 164.002053,143.5511 C164.002053,142.233302 163.579504,141.151864 162.734394,140.306754 C161.889284,139.461645 160.464078,139.039096 158.458733,139.039096 C157.570651,139.039096 156.754202,139.117876 156.009359,139.275439 C155.264517,139.433002 154.612789,139.705152 154.054157,140.091897 C153.495525,140.478642 153.037167,140.994295 152.67907,141.63887 C152.320973,142.283445 152.084632,143.092733 151.970041,144.066758 L149.348781,144.066758 C149.434724,142.74896 149.735522,141.624551 150.251182,140.693498 C150.766842,139.762444 151.432893,139.003289 152.249355,138.41601 C153.065817,137.82873 154.01118,137.39902 155.085472,137.126866 C156.159765,136.854712 157.298497,136.718637 158.501704,136.718637 C159.618968,136.718637 160.671759,136.840388 161.660108,137.083894 C162.648456,137.3274 163.507877,137.71414 164.238396,138.244124 C164.968914,138.774108 165.541862,139.48313 165.957255,140.371212 C166.372648,141.259293 166.580341,142.347893 166.580341,143.637043 L166.580341,155.754998 C166.580341,156.757671 166.759387,157.395075 167.117484,157.667229 C167.475582,157.939383 168.198928,157.874926 169.287544,157.473857 L169.287544,159.493516 C169.087009,159.550812 168.793374,159.636754 168.406628,159.751345 C168.019883,159.865936 167.640306,159.923231 167.267884,159.923231 C166.866815,159.923231 166.480076,159.88026 166.107655,159.794317 C165.677938,159.737021 165.33417,159.600946 165.076339,159.386088 C164.818509,159.171229 164.610816,158.913403 164.453253,158.612601 C164.29569,158.311799 164.188263,157.982355 164.130967,157.624257 C164.073672,157.26616 164.045024,156.886582 164.045024,156.485513 C162.956408,157.68872 161.710248,158.605436 160.306506,159.235687 C158.902764,159.865939 157.384454,160.18106 155.75153,160.18106 C154.777505,160.18106 153.839304,160.052147 152.936899,159.794317 C152.034493,159.536486 151.239529,159.135423 150.551982,158.591115 C149.864435,158.046807 149.320135,157.380756 148.919066,156.592942 C148.517997,155.805128 148.317466,154.866927 148.317466,153.778311 C148.317466,149.996802 150.910052,147.762308 156.095302,147.074761 L159.661934,146.602075 Z M190.51545,148.535791 C190.51545,147.189345 190.350728,145.936023 190.021278,144.775787 C189.691829,143.615552 189.211986,142.612894 188.581734,141.767784 C187.951483,140.922675 187.16368,140.256623 186.218303,139.769611 C185.272926,139.282599 184.19865,139.039096 182.995443,139.039096 C181.906827,139.039096 180.904169,139.232466 179.98744,139.619211 C179.070711,140.005956 178.268585,140.571741 177.581038,141.316584 C176.893491,142.061427 176.356353,142.97098 175.969607,144.045272 C175.582862,145.119565 175.389493,146.358563 175.389493,147.762305 C175.332197,149.166046 175.446786,150.476663 175.733264,151.694194 C176.019742,152.911725 176.4781,153.97884 177.108351,154.895569 C177.738603,155.812298 178.540729,156.535644 179.514754,157.065628 C180.488779,157.595612 181.648997,157.8606 182.995443,157.8606 C184.170002,157.8606 185.222793,157.609936 186.153846,157.1086 C187.084899,156.607263 187.872702,155.93405 188.517277,155.08894 C189.161852,154.243831 189.656019,153.255497 189.999793,152.123909 C190.343566,150.992321 190.51545,149.796294 190.51545,148.535791 Z M190.51545,137.320237 L193.093739,137.320237 L193.093739,157.430886 C193.093739,158.920571 192.94334,160.345777 192.642538,161.706547 C192.341736,163.067317 191.804598,164.263344 191.031108,165.294665 C190.257618,166.325985 189.197665,167.149597 187.851219,167.765524 C186.504773,168.381452 184.771608,168.689411 182.651671,168.689411 C181.018747,168.689411 179.615026,168.481718 178.440467,168.066325 C177.265908,167.650932 176.306221,167.128117 175.561378,166.497866 C174.816536,165.867615 174.25075,165.172916 173.864005,164.41375 C173.47726,163.654583 173.269567,162.945561 173.240919,162.286662 L175.991093,162.286662 C176.191628,163.117448 176.506749,163.797823 176.936465,164.327807 C177.366182,164.857791 177.874673,165.273178 178.461953,165.573979 C179.049232,165.874781 179.70096,166.082475 180.417155,166.197066 C181.133349,166.311657 181.878181,166.368952 182.651671,166.368952 C184.399186,166.368952 185.802907,166.068154 186.862875,165.466551 C187.922844,164.864947 188.72497,164.077145 189.269278,163.10312 C189.813586,162.129095 190.164516,161.026172 190.322079,159.794317 C190.479642,158.562462 190.544098,157.301978 190.51545,156.012827 C189.684664,157.387921 188.545932,158.426388 187.099218,159.128259 C185.652505,159.83013 184.141357,160.18106 182.565728,160.18106 C180.875509,160.18106 179.407331,159.858777 178.161152,159.214202 C176.914974,158.569626 175.883669,157.710206 175.067206,156.635913 C174.250744,155.561621 173.641988,154.308299 173.240919,152.87591 C172.83985,151.44352 172.639318,149.953857 172.639318,148.406877 C172.639318,146.773953 172.825526,145.241319 173.197947,143.808929 C173.570369,142.37654 174.164802,141.137541 174.981264,140.091897 C175.797726,139.046253 176.836192,138.222641 178.096695,137.621037 C179.357198,137.019434 180.889832,136.718637 182.694643,136.718637 C183.410837,136.718637 184.141345,136.818902 184.886188,137.019437 C185.63103,137.219971 186.354376,137.506445 187.056247,137.878866 C187.758118,138.251288 188.402683,138.723969 188.989963,139.296925 C189.577243,139.869881 190.057086,140.514446 190.429507,141.230641 L190.51545,141.230641 L190.51545,137.320237 Z M215.696732,146.902875 C215.696732,145.814259 215.546334,144.790116 215.245532,143.830415 C214.94473,142.870714 214.500696,142.039941 213.913416,141.33807 C213.326137,140.636199 212.588467,140.077575 211.700386,139.662182 C210.812304,139.246789 209.795323,139.039096 208.649411,139.039096 C207.5035,139.039096 206.49368,139.253951 205.619922,139.683668 C204.746165,140.113385 204.001333,140.686332 203.385406,141.402527 C202.769478,142.118722 202.275311,142.949495 201.90289,143.894872 C201.530469,144.840249 201.286966,145.842907 201.172375,146.902875 L215.696732,146.902875 Z M201.172375,149.051449 C201.172375,150.254656 201.329936,151.393389 201.645061,152.467681 C201.960187,153.541973 202.425707,154.473012 203.041634,155.260826 C203.657562,156.048641 204.438202,156.678883 205.383579,157.151571 C206.328956,157.62426 207.417556,157.8606 208.649411,157.8606 C210.339631,157.8606 211.786323,157.416566 212.98953,156.528485 C214.192737,155.640403 214.994863,154.379919 215.395932,152.746995 L218.275021,152.746995 C217.959895,153.806964 217.544508,154.788136 217.028848,155.690541 C216.513188,156.592946 215.868622,157.380749 215.095132,158.053972 C214.321641,158.727195 213.404926,159.250009 212.344958,159.622431 C211.284989,159.994852 210.053153,160.18106 208.649411,160.18106 C206.873248,160.18106 205.340614,159.880262 204.051464,159.278659 C202.762313,158.677055 201.702361,157.853444 200.871575,156.807799 C200.040789,155.762155 199.424871,154.530318 199.023802,153.112253 C198.622733,151.694187 198.422201,150.168715 198.422201,148.535791 C198.422201,146.902867 198.658542,145.370233 199.13123,143.937844 C199.603919,142.505454 200.277132,141.252132 201.150889,140.17784 C202.024647,139.103548 203.091761,138.258451 204.352264,137.642523 C205.612767,137.026596 207.045135,136.718637 208.649411,136.718637 C211.714725,136.718637 214.121103,137.771427 215.868618,139.87704 C217.616134,141.982652 218.475554,145.040758 218.446907,149.051449 L201.172375,149.051449 Z" id="No-image" fill="#919191"></path>
                <path d="M58.5885108,197.647659 C57.4998947,198.106024 56.3969713,198.406821 55.2797075,198.55006 C54.1624437,198.693299 53.0451966,198.807889 51.9279328,198.893832 C49.9512352,199.037071 48.4114396,199.481105 47.3084996,200.225948 C46.2055597,200.97079 45.654098,202.102361 45.654098,203.620694 C45.654098,204.308241 45.7901729,204.902673 46.062327,205.40401 C46.334481,205.905346 46.692573,206.320733 47.1366137,206.650182 C47.5806545,206.979632 48.096307,207.223135 48.6835867,207.380697 C49.2708664,207.53826 49.8652991,207.617041 50.4669027,207.617041 C51.4982232,207.617041 52.5008808,207.488127 53.4749057,207.230297 C54.4489306,206.972467 55.3155133,206.578566 56.0746797,206.048582 C56.8338462,205.518598 57.4426026,204.845385 57.9009672,204.028923 C58.3593319,203.212461 58.5885108,202.245612 58.5885108,201.128348 L58.5885108,197.647659 Z M54.2483922,196.358515 C54.7354046,196.30122 55.3155137,196.215277 55.9887368,196.100686 C56.6619599,195.986095 57.2134216,195.828535 57.6431384,195.628 C58.0728553,195.427466 58.3378434,195.090859 58.4381106,194.618171 C58.5383779,194.145482 58.5885108,193.70861 58.5885108,193.307541 C58.5885108,191.989742 58.1659622,190.908304 57.3208524,190.063195 C56.4757426,189.218085 55.0505363,188.795536 53.045191,188.795536 C52.1571095,188.795536 51.3406597,188.874316 50.5958172,189.031879 C49.8509746,189.189442 49.1992471,189.461592 48.6406152,189.848337 C48.0819833,190.235082 47.6236255,190.750735 47.2655281,191.39531 C46.9074308,192.039886 46.67109,192.849173 46.5564989,193.823198 L43.9352391,193.823198 C44.0211825,192.5054 44.3219798,191.380991 44.83764,190.449938 C45.3533003,189.518885 46.0193514,188.75973 46.8358134,188.17245 C47.6522755,187.58517 48.5976384,187.15546 49.6719305,186.883306 C50.7462227,186.611152 51.8849553,186.475077 53.0881625,186.475077 C54.2054263,186.475077 55.2582168,186.596828 56.2465656,186.840334 C57.2349144,187.083841 58.0943352,187.47058 58.8248539,188.000564 C59.5553725,188.530548 60.1283197,189.23957 60.5437127,190.127652 C60.9591057,191.015733 61.166799,192.104333 61.166799,193.393484 L61.166799,205.511438 C61.166799,206.514111 61.345845,207.151515 61.7039424,207.423669 C62.0620398,207.695823 62.7853857,207.631366 63.8740017,207.230297 L63.8740017,209.249956 C63.6734672,209.307252 63.3798317,209.393194 62.9930866,209.507785 C62.6063414,209.622376 62.2267639,209.679671 61.8543426,209.679671 C61.4532735,209.679671 61.0665341,209.6367 60.6941129,209.550757 C60.264396,209.493461 59.9206277,209.357386 59.6627976,209.142528 C59.4049674,208.927669 59.1972741,208.669843 59.0397112,208.369041 C58.8821484,208.06824 58.7747208,207.738795 58.7174252,207.380697 C58.6601296,207.0226 58.6314822,206.643023 58.6314822,206.241953 C57.5428662,207.445161 56.296706,208.361876 54.8929643,208.992128 C53.4892225,209.622379 51.9709124,209.9375 50.3379883,209.9375 C49.3639634,209.9375 48.4257624,209.808587 47.523357,209.550757 C46.6209516,209.292927 45.8259873,208.891864 45.1384403,208.347556 C44.4508933,207.803248 43.9065935,207.137196 43.5055244,206.349382 C43.1044554,205.561568 42.9039238,204.623367 42.9039238,203.534751 C42.9039238,199.753242 45.49651,197.518748 50.6817601,196.831201 L54.2483922,196.358515 Z M65.5498891,187.076677 L68.3430347,187.076677 L75.5622419,206.156011 L82.781449,187.076677 L85.5745946,187.076677 L76.9373289,209.335899 L74.0582404,209.335899 L65.5498891,187.076677 Z M103.966384,197.647659 C102.877768,198.106024 101.774845,198.406821 100.657581,198.55006 C99.5403171,198.693299 98.4230701,198.807889 97.3058062,198.893832 C95.3291087,199.037071 93.789313,199.481105 92.6863731,200.225948 C91.5834331,200.97079 91.0319715,202.102361 91.0319715,203.620694 C91.0319715,204.308241 91.1680464,204.902673 91.4402004,205.40401 C91.7123544,205.905346 92.0704464,206.320733 92.5144872,206.650182 C92.958528,206.979632 93.4741805,207.223135 94.0614602,207.380697 C94.6487399,207.53826 95.2431726,207.617041 95.8447762,207.617041 C96.8760967,207.617041 97.8787543,207.488127 98.8527792,207.230297 C99.8268041,206.972467 100.693387,206.578566 101.452553,206.048582 C102.21172,205.518598 102.820476,204.845385 103.278841,204.028923 C103.737205,203.212461 103.966384,202.245612 103.966384,201.128348 L103.966384,197.647659 Z M99.6262657,196.358515 C100.113278,196.30122 100.693387,196.215277 101.36661,196.100686 C102.039833,195.986095 102.591295,195.828535 103.021012,195.628 C103.450729,195.427466 103.715717,195.090859 103.815984,194.618171 C103.916251,194.145482 103.966384,193.70861 103.966384,193.307541 C103.966384,191.989742 103.543836,190.908304 102.698726,190.063195 C101.853616,189.218085 100.42841,188.795536 98.4230645,188.795536 C97.534983,188.795536 96.7185332,188.874316 95.9736906,189.031879 C95.2288481,189.189442 94.5771206,189.461592 94.0184887,189.848337 C93.4598568,190.235082 93.001499,190.750735 92.6434016,191.39531 C92.2853042,192.039886 92.0489635,192.849173 91.9343723,193.823198 L89.3131126,193.823198 C89.399056,192.5054 89.6998533,191.380991 90.2155135,190.449938 C90.7311737,189.518885 91.3972249,188.75973 92.2136869,188.17245 C93.0301489,187.58517 93.9755119,187.15546 95.049804,186.883306 C96.1240961,186.611152 97.2628287,186.475077 98.466036,186.475077 C99.5832998,186.475077 100.63609,186.596828 101.624439,186.840334 C102.612788,187.083841 103.472209,187.47058 104.202727,188.000564 C104.933246,188.530548 105.506193,189.23957 105.921586,190.127652 C106.336979,191.015733 106.544673,192.104333 106.544673,193.393484 L106.544673,205.511438 C106.544673,206.514111 106.723719,207.151515 107.081816,207.423669 C107.439913,207.695823 108.163259,207.631366 109.251875,207.230297 L109.251875,209.249956 C109.051341,209.307252 108.757705,209.393194 108.37096,209.507785 C107.984215,209.622376 107.604637,209.679671 107.232216,209.679671 C106.831147,209.679671 106.444408,209.6367 106.071986,209.550757 C105.642269,209.493461 105.298501,209.357386 105.040671,209.142528 C104.782841,208.927669 104.575148,208.669843 104.417585,208.369041 C104.260022,208.06824 104.152594,207.738795 104.095299,207.380697 C104.038003,207.0226 104.009356,206.643023 104.009356,206.241953 C102.92074,207.445161 101.674579,208.361876 100.270838,208.992128 C98.867096,209.622379 97.3487859,209.9375 95.7158618,209.9375 C94.7418369,209.9375 93.8036358,209.808587 92.9012304,209.550757 C91.998825,209.292927 91.2038608,208.891864 90.5163138,208.347556 C89.8287668,207.803248 89.284467,207.137196 88.8833979,206.349382 C88.4823288,205.561568 88.2817973,204.623367 88.2817973,203.534751 C88.2817973,199.753242 90.8743835,197.518748 96.0596336,196.831201 L99.6262657,196.358515 Z M113.677937,209.335899 L113.677937,187.076677 L116.256225,187.076677 L116.256225,209.335899 L113.677937,209.335899 Z M113.549022,182.220901 L113.549022,178.39644 L116.385139,178.39644 L116.385139,182.220901 L113.549022,182.220901 Z M123.217603,209.335899 L123.217603,178.39644 L125.795892,178.39644 L125.795892,209.335899 L123.217603,209.335899 Z M146.937855,197.647659 C145.849239,198.106024 144.746316,198.406821 143.629052,198.55006 C142.511788,198.693299 141.394541,198.807889 140.277277,198.893832 C138.30058,199.037071 136.760784,199.481105 135.657844,200.225948 C134.554904,200.97079 134.003443,202.102361 134.003443,203.620694 C134.003443,204.308241 134.139518,204.902673 134.411672,205.40401 C134.683826,205.905346 135.041918,206.320733 135.485958,206.650182 C135.929999,206.979632 136.445652,207.223135 137.032931,207.380697 C137.620211,207.53826 138.214644,207.617041 138.816247,207.617041 C139.847568,207.617041 140.850225,207.488127 141.82425,207.230297 C142.798275,206.972467 143.664858,206.578566 144.424024,206.048582 C145.183191,205.518598 145.791947,204.845385 146.250312,204.028923 C146.708676,203.212461 146.937855,202.245612 146.937855,201.128348 L146.937855,197.647659 Z M142.597737,196.358515 C143.084749,196.30122 143.664858,196.215277 144.338081,196.100686 C145.011304,195.986095 145.562766,195.828535 145.992483,195.628 C146.4222,195.427466 146.687188,195.090859 146.787455,194.618171 C146.887722,194.145482 146.937855,193.70861 146.937855,193.307541 C146.937855,191.989742 146.515307,190.908304 145.670197,190.063195 C144.825087,189.218085 143.399881,188.795536 141.394536,188.795536 C140.506454,188.795536 139.690004,188.874316 138.945162,189.031879 C138.200319,189.189442 137.548592,189.461592 136.98996,189.848337 C136.431328,190.235082 135.97297,190.750735 135.614873,191.39531 C135.256775,192.039886 135.020435,192.849173 134.905843,193.823198 L132.284584,193.823198 C132.370527,192.5054 132.671324,191.380991 133.186985,190.449938 C133.702645,189.518885 134.368696,188.75973 135.185158,188.17245 C136.00162,187.58517 136.946983,187.15546 138.021275,186.883306 C139.095567,186.611152 140.2343,186.475077 141.437507,186.475077 C142.554771,186.475077 143.607561,186.596828 144.59591,186.840334 C145.584259,187.083841 146.44368,187.47058 147.174198,188.000564 C147.904717,188.530548 148.477664,189.23957 148.893057,190.127652 C149.30845,191.015733 149.516144,192.104333 149.516144,193.393484 L149.516144,205.511438 C149.516144,206.514111 149.69519,207.151515 150.053287,207.423669 C150.411384,207.695823 151.13473,207.631366 152.223346,207.230297 L152.223346,209.249956 C152.022812,209.307252 151.729176,209.393194 151.342431,209.507785 C150.955686,209.622376 150.576108,209.679671 150.203687,209.679671 C149.802618,209.679671 149.415879,209.6367 149.043457,209.550757 C148.613741,209.493461 148.269972,209.357386 148.012142,209.142528 C147.754312,208.927669 147.546619,208.669843 147.389056,208.369041 C147.231493,208.06824 147.124065,207.738795 147.06677,207.380697 C147.009474,207.0226 146.980827,206.643023 146.980827,206.241953 C145.892211,207.445161 144.646051,208.361876 143.242309,208.992128 C141.838567,209.622379 140.320257,209.9375 138.687333,209.9375 C137.713308,209.9375 136.775107,209.808587 135.872702,209.550757 C134.970296,209.292927 134.175332,208.891864 133.487785,208.347556 C132.800238,207.803248 132.255938,207.137196 131.854869,206.349382 C131.4538,205.561568 131.253268,204.623367 131.253268,203.534751 C131.253268,199.753242 133.845855,197.518748 139.031105,196.831201 L142.597737,196.358515 Z M159.141753,198.120345 C159.141753,199.466792 159.306475,200.720114 159.635925,201.880349 C159.965375,203.040585 160.445218,204.043242 161.075469,204.888352 C161.705721,205.733462 162.493523,206.399513 163.4389,206.886526 C164.384277,207.373538 165.458553,207.617041 166.661761,207.617041 C167.750377,207.617041 168.753034,207.423671 169.669764,207.036926 C170.586493,206.650181 171.388619,206.084395 172.076166,205.339553 C172.763713,204.59471 173.300851,203.685156 173.687596,202.610864 C174.074341,201.536572 174.267711,200.297574 174.267711,198.893832 C174.325007,197.49009 174.210417,196.179473 173.923939,194.961942 C173.637461,193.744411 173.179104,192.677297 172.548852,191.760568 C171.918601,190.843838 171.109313,190.120493 170.120964,189.590508 C169.132615,189.060524 167.979559,188.795536 166.661761,188.795536 C165.487201,188.795536 164.434411,189.046201 163.503357,189.547537 C162.572304,190.048873 161.784502,190.722086 161.139927,191.567196 C160.495351,192.412306 160.001184,193.40064 159.657411,194.532228 C159.313637,195.663815 159.141753,196.859843 159.141753,198.120345 Z M159.141753,209.335899 L156.563465,209.335899 L156.563465,178.39644 L159.141753,178.39644 L159.141753,190.643309 C159.972539,189.268216 161.111272,188.229749 162.557985,187.527878 C164.004699,186.826007 165.515847,186.475077 167.091475,186.475077 C168.781695,186.475077 170.249872,186.79736 171.496051,187.441935 C172.74223,188.08651 173.773535,188.945931 174.589997,190.020223 C175.406459,191.094515 176.015215,192.347837 176.416285,193.780227 C176.817354,195.212616 177.017885,196.702279 177.017885,198.24926 C177.017885,199.882184 176.831677,201.414818 176.459256,202.847207 C176.086835,204.279597 175.492402,205.518595 174.67594,206.56424 C173.859478,207.609884 172.821011,208.433496 171.560508,209.035099 C170.300005,209.636703 168.767372,209.9375 166.962561,209.9375 C166.246366,209.9375 165.515858,209.837234 164.771016,209.6367 C164.026173,209.436165 163.302827,209.149692 162.600957,208.77727 C161.899086,208.404849 161.25452,207.939329 160.66724,207.380697 C160.079961,206.822066 159.600117,206.170338 159.227696,205.425496 L159.141753,205.425496 L159.141753,209.335899 Z M182.904977,209.335899 L182.904977,178.39644 L185.483265,178.39644 L185.483265,209.335899 L182.904977,209.335899 Z M208.172202,196.659315 C208.172202,195.570699 208.021803,194.546556 207.721001,193.586855 C207.420199,192.627154 206.976165,191.796381 206.388886,191.09451 C205.801606,190.392639 205.063936,189.834016 204.175855,189.418623 C203.287773,189.00323 202.270792,188.795536 201.12488,188.795536 C199.978969,188.795536 198.969149,189.010391 198.095392,189.440108 C197.221634,189.869825 196.476803,190.442772 195.860875,191.158967 C195.244948,191.875162 194.750781,192.705935 194.378359,193.651312 C194.005938,194.59669 193.762436,195.599347 193.647844,196.659315 L208.172202,196.659315 Z M193.647844,198.807889 C193.647844,200.011096 193.805405,201.149829 194.120531,202.224121 C194.435656,203.298413 194.901176,204.229452 195.517103,205.017267 C196.133031,205.805081 196.913672,206.435323 197.859049,206.908011 C198.804426,207.3807 199.893025,207.617041 201.12488,207.617041 C202.8151,207.617041 204.261792,207.173006 205.464999,206.284925 C206.668206,205.396843 207.470332,204.13636 207.871401,202.503436 L210.75049,202.503436 C210.435364,203.563404 210.019977,204.544576 209.504317,205.446981 C208.988657,206.349387 208.344091,207.137189 207.570601,207.810412 C206.797111,208.483635 205.880395,209.00645 204.820427,209.378871 C203.760459,209.751292 202.528622,209.9375 201.12488,209.9375 C199.348717,209.9375 197.816084,209.636703 196.526933,209.035099 C195.237782,208.433496 194.17783,207.609884 193.347044,206.56424 C192.516258,205.518595 191.90034,204.286759 191.499271,202.868693 C191.098202,201.450627 190.89767,199.925155 190.89767,198.292231 C190.89767,196.659307 191.134011,195.126673 191.6067,193.694284 C192.079388,192.261894 192.752601,191.008572 193.626359,189.93428 C194.500116,188.859988 195.567231,188.014891 196.827733,187.398963 C198.088236,186.783036 199.520604,186.475077 201.12488,186.475077 C204.190194,186.475077 206.596572,187.527867 208.344088,189.63348 C210.091603,191.739093 210.951024,194.797198 210.922376,198.807889 L193.647844,198.807889 Z" id="available" fill="#919191"></path>
            </g>
        </g>
    </g>
</svg>