<svg width="554" height="69" fill="none" xmlns="http://www.w3.org/2000/svg"><g clip-path="url(#browser__a)"><g filter="url(#browser__b)"><path d="M0 3a3 3 0 0 1 3-3h548a3 3 0 0 1 3 3v66H0V3Z" fill="#EAEAEA"/></g><rect x="88" y="17" width="452" height="29" rx="3" fill="#FCFCFC"/><rect x="102" y="26" width="241" height="12" rx="2" fill="#D8D8D8"/><path d="M49.864 33.136 42.728 26v14.272l7.136-7.136Zm-34.864 0 7.136 7.136V26L15 33.136Z" fill="#C4C4C4"/><circle cx="71" cy="33" r="6" fill="#C4C4C4"/><path fill="#F9F9F9" d="M2 60h550v9H2z"/></g><defs><clipPath id="browser__a"><path fill="#fff" d="M0 0h554v69H0z"/></clipPath><filter id="browser__b" x="-4" y="-7" width="562" height="77" filterUnits="userSpaceOnUse" color-interpolation-filters="sRGB"><feFlood flood-opacity="0" result="BackgroundImageFix"/><feColorMatrix in="SourceAlpha" values="0 0 0 0 0 0 0 0 0 0 0 0 0 0 0 0 0 0 127 0" result="hardAlpha"/><feOffset dy="-3"/><feGaussianBlur stdDeviation="2"/><feComposite in2="hardAlpha" operator="out"/><feColorMatrix values="0 0 0 0 0 0 0 0 0 0 0 0 0 0 0 0 0 0 0.05 0"/><feBlend in2="BackgroundImageFix" result="effect1_dropShadow_19_9"/><feBlend in="SourceGraphic" in2="effect1_dropShadow_19_9" result="shape"/></filter></defs></svg>